<svg xmlns="http://www.w3.org/2000/svg" xmlns:xlink="http://www.w3.org/1999/xlink" xml:space="preserve" width="200" height="200" fill-rule="evenodd" clip-rule="evenodd" image-rendering="optimizeQuality" shape-rendering="geometricPrecision" text-rendering="geometricPrecision" viewBox="0 0 200 200"><defs><linearGradient id="id0" x1="11.224%" x2="88.775%" y1="105.389%" y2="0%" gradientUnits="objectBoundingBox"><stop offset="0" stop-color="#3d80c2"/><stop offset="1" stop-color="#6bbd94"/></linearGradient><linearGradient xlink:href="#id0" id="id1" x1="0%" x2="95.636%" y1="166.979%" y2="0%" gradientUnits="objectBoundingBox"/><linearGradient xlink:href="#id0" id="id2" x1="0%" x2="88.587%" y1="162.236%" y2="0%" gradientUnits="objectBoundingBox"/><linearGradient xlink:href="#id0" id="id3" x1="0%" x2="89.085%" y1="489.228%" y2="0%" gradientUnits="objectBoundingBox"/><style>.str0,.str1{stroke:#fefefe;stroke-width:.59;stroke-linejoin:round;stroke-miterlimit:22.9256}.str1{stroke:#2b2a29}.fil0{fill:none}.fil5,.fil6{fill:none;fill-rule:nonzero}.fil6{fill:#e3e3e3}.fil1{fill:url(#id0)}.fil2{fill:url(#id1)}.fil3{fill:url(#id2)}.fil4{fill:url(#id3)}</style></defs><g id="Layer_x0020_1"><g id="_2250748232080"><path d="M89.69 31.66v12.11a49.2 49.2 0 0 1 10.33-1.08c13.16 0 25.53 5.12 34.83 14.42 19.21 19.22 19.21 50.48 0 69.68l-34.83 34.84-34.84-34.84c-9.31-9.3-14.43-21.67-14.43-34.84 0-1.89.1-3.77.32-5.63H39.11c-.17 1.86-.26 3.74-.26 5.63 0 16.34 6.37 31.7 17.91 43.25l43.26 43.26 43.25-43.26c11.92-11.92 17.88-27.58 17.88-43.25 0-15.66-5.96-31.32-17.88-43.24-11.56-11.56-26.92-17.91-43.25-17.91-3.5 0-6.95.29-10.33.86z" class="fil0 str0"/><path id="_1" d="M89.69 31.66v12.11a49.2 49.2 0 0 1 10.33-1.08c13.16 0 25.53 5.12 34.83 14.42 19.21 19.22 19.21 50.48 0 69.68l-34.83 34.84-34.84-34.84c-9.31-9.3-14.43-21.67-14.43-34.84 0-1.89.1-3.77.32-5.63H39.11c-.17 1.86-.26 3.74-.26 5.63 0 16.34 6.37 31.7 17.91 43.25l43.26 43.26 43.25-43.26c11.92-11.92 17.88-27.58 17.88-43.25 0-15.66-5.96-31.32-17.88-43.24-11.56-11.56-26.92-17.91-43.25-17.91-3.5 0-6.95.29-10.33.86" class="fil1"/><path d="M110.41 76.34c1.01.68 1.98 1.47 2.86 2.36 3.54 3.54 5.49 8.25 5.49 13.25 0 5.02-1.95 9.72-5.49 13.26a18.62 18.62 0 0 1-13.25 5.49c-4.08 0-7.95-1.29-11.15-3.67H73.32c1.35 2.39 3.04 4.61 5.03 6.59 5.79 5.79 13.48 8.98 21.67 8.98 8.18 0 15.87-3.19 21.66-8.98 5.79-5.78 8.97-13.48 8.97-21.67 0-8.18-3.18-15.87-8.97-21.66a30.5 30.5 0 0 0-11.27-7.18z" class="fil0 str0"/><path id="_1_0" d="M110.41 76.34c1.01.68 1.98 1.47 2.86 2.36 3.54 3.54 5.49 8.25 5.49 13.25 0 5.02-1.95 9.72-5.49 13.26a18.62 18.62 0 0 1-13.25 5.49c-4.08 0-7.95-1.29-11.15-3.67H73.32c1.35 2.39 3.04 4.61 5.03 6.59 5.79 5.79 13.48 8.98 21.67 8.98 8.18 0 15.87-3.19 21.66-8.98 5.79-5.78 8.97-13.48 8.97-21.67 0-8.18-3.18-15.87-8.97-21.66a30.5 30.5 0 0 0-11.27-7.18z" class="fil2"/><path d="M83.74 35.48H59.57v20.71H38.85v24.18h20.72v20.72h24.17V80.37h20.72V56.19H83.74z" class="fil0 str0"/><path id="_1_1" d="M83.74 35.48H59.57v20.71H38.85v24.18h20.72v20.72h24.17V80.37h20.72V56.19H83.74z" class="fil3"/><path d="M53.17 21.54h-7.5v6.43h-6.43v7.5h6.43v6.43h7.5v-6.43h6.43v-7.5h-6.43z" class="fil0 str0"/><path id="_1_2" d="M53.17 21.54h-7.5v6.43h-6.43v7.5h6.43v6.43h7.5v-6.43h6.43v-7.5h-6.43z" class="fil4"/><path d="M137.01 123.45c-.69 1.12-1.43 2.24-2.23 3.38 19.22-19.21 19.22-50.47 0-69.68-9.3-9.31-21.68-14.43-34.83-14.43-3.46 0-6.87.36-10.18 1.05 0 0 .23-.03.66-.06l-.66.06s13.37-.2 23.93 4.49c.12.05.23.11.35.16.22.1.44.2.65.3 6.11 2.9 12.68 7.41 18.85 14.39 0 0 24.65 25.93 3.59 60.13-.05.07-.08.14-.13.21z" class="fil5 str0"/><path id="_1_3" d="M137.01 123.45c-.69 1.12-1.43 2.24-2.23 3.38 19.22-19.21 19.22-50.47 0-69.68-9.3-9.31-21.68-14.43-34.83-14.43-3.46 0-6.87.36-10.18 1.05 0 0 .23-.03.66-.06l-.66.06s13.37-.2 23.93 4.49c.12.05.23.11.35.16.22.1.44.2.65.3 6.11 2.9 12.68 7.41 18.85 14.39 0 0 24.65 25.93 3.59 60.13-.05.07-.08.14-.13.21" class="fil6"/><path d="M89.69 31.66v12.11a49.2 49.2 0 0 1 10.33-1.08c13.16 0 25.53 5.12 34.83 14.42 19.21 19.22 19.21 50.48 0 69.68l-34.83 34.84-34.84-34.84c-9.31-9.3-14.43-21.67-14.43-34.84 0-1.89.1-3.77.32-5.63H39.11c-.17 1.86-.26 3.74-.26 5.63 0 16.34 6.37 31.7 17.91 43.25l43.26 43.26 43.25-43.26c11.92-11.92 17.88-27.58 17.88-43.25 0-15.66-5.96-31.32-17.88-43.24-11.56-11.56-26.92-17.91-43.25-17.91-3.5 0-6.95.29-10.33.86z" class="fil0 str1"/><path id="_1_4" d="M89.69 31.66v12.11a49.2 49.2 0 0 1 10.33-1.08c13.16 0 25.53 5.12 34.83 14.42 19.21 19.22 19.21 50.48 0 69.68l-34.83 34.84-34.84-34.84c-9.31-9.3-14.43-21.67-14.43-34.84 0-1.89.1-3.77.32-5.63H39.11c-.17 1.86-.26 3.74-.26 5.63 0 16.34 6.37 31.7 17.91 43.25l43.26 43.26 43.25-43.26c11.92-11.92 17.88-27.58 17.88-43.25 0-15.66-5.96-31.32-17.88-43.24-11.56-11.56-26.92-17.91-43.25-17.91-3.5 0-6.95.29-10.33.86" class="fil1"/><path d="M110.41 76.34c1.01.68 1.98 1.47 2.86 2.36 3.54 3.54 5.49 8.25 5.49 13.25 0 5.02-1.95 9.72-5.49 13.26a18.62 18.62 0 0 1-13.25 5.49c-4.08 0-7.95-1.29-11.15-3.67H73.32c1.35 2.39 3.04 4.61 5.03 6.59 5.79 5.79 13.48 8.98 21.67 8.98 8.18 0 15.87-3.19 21.66-8.98 5.79-5.78 8.97-13.48 8.97-21.67 0-8.18-3.18-15.87-8.97-21.66a30.5 30.5 0 0 0-11.27-7.18z" class="fil0 str1"/><path id="_1_5" d="M110.41 76.34c1.01.68 1.98 1.47 2.86 2.36 3.54 3.54 5.49 8.25 5.49 13.25 0 5.02-1.95 9.72-5.49 13.26a18.62 18.62 0 0 1-13.25 5.49c-4.08 0-7.95-1.29-11.15-3.67H73.32c1.35 2.39 3.04 4.61 5.03 6.59 5.79 5.79 13.48 8.98 21.67 8.98 8.18 0 15.87-3.19 21.66-8.98 5.79-5.78 8.97-13.48 8.97-21.67 0-8.18-3.18-15.87-8.97-21.66a30.5 30.5 0 0 0-11.27-7.18z" class="fil2"/><path d="M83.74 35.48H59.57v20.71H38.85v24.18h20.72v20.72h24.17V80.37h20.72V56.19H83.74z" class="fil0 str1"/><path id="_1_6" d="M83.74 35.48H59.57v20.71H38.85v24.18h20.72v20.72h24.17V80.37h20.72V56.19H83.74z" class="fil3"/><path d="M53.17 21.54h-7.5v6.43h-6.43v7.5h6.43v6.43h7.5v-6.43h6.43v-7.5h-6.43z" class="fil0 str1"/><path id="_1_7" d="M53.17 21.54h-7.5v6.43h-6.43v7.5h6.43v6.43h7.5v-6.43h6.43v-7.5h-6.43z" class="fil4"/><path d="M137.01 123.45c-.69 1.12-1.43 2.24-2.23 3.38 19.22-19.21 19.22-50.47 0-69.68-9.3-9.31-21.68-14.43-34.83-14.43-3.46 0-6.87.36-10.18 1.05 0 0 .23-.03.66-.06l-.66.06s13.37-.2 23.93 4.49c.12.05.23.11.35.16.22.1.44.2.65.3 6.11 2.9 12.68 7.41 18.85 14.39 0 0 24.65 25.93 3.59 60.13-.05.07-.08.14-.13.21z" class="fil5 str1"/><path id="_1_8" d="M137.01 123.45c-.69 1.12-1.43 2.24-2.23 3.38 19.22-19.21 19.22-50.47 0-69.68-9.3-9.31-21.68-14.43-34.83-14.43-3.46 0-6.87.36-10.18 1.05 0 0 .23-.03.66-.06l-.66.06s13.37-.2 23.93 4.49c.12.05.23.11.35.16.22.1.44.2.65.3 6.11 2.9 12.68 7.41 18.85 14.39 0 0 24.65 25.93 3.59 60.13-.05.07-.08.14-.13.21" class="fil6"/><path d="M89.69 31.66v12.11a49.2 49.2 0 0 1 10.33-1.08c13.16 0 25.53 5.12 34.83 14.42 19.21 19.22 19.21 50.48 0 69.68l-34.83 34.84-34.84-34.84c-9.31-9.3-14.43-21.67-14.43-34.84 0-1.89.1-3.77.32-5.63H39.11c-.17 1.86-.26 3.74-.26 5.63 0 16.34 6.37 31.7 17.91 43.25l43.26 43.26 43.25-43.26c11.92-11.92 17.88-27.58 17.88-43.25 0-15.66-5.96-31.32-17.88-43.24-11.56-11.56-26.92-17.91-43.25-17.91-3.5 0-6.95.29-10.33.86" class="fil1"/><path d="M110.41 76.34c1.01.68 1.98 1.47 2.86 2.36 3.54 3.54 5.49 8.25 5.49 13.25 0 5.02-1.95 9.72-5.49 13.26a18.62 18.62 0 0 1-13.25 5.49c-4.08 0-7.95-1.29-11.15-3.67H73.32c1.35 2.39 3.04 4.61 5.03 6.59 5.79 5.79 13.48 8.98 21.67 8.98 8.18 0 15.87-3.19 21.66-8.98 5.79-5.78 8.97-13.48 8.97-21.67 0-8.18-3.18-15.87-8.97-21.66a30.5 30.5 0 0 0-11.27-7.18z" class="fil2"/><path d="M83.74 35.48H59.57v20.71H38.85v24.18h20.72v20.72h24.17V80.37h20.72V56.19H83.74z" class="fil3"/><path d="M53.17 21.54h-7.5v6.43h-6.43v7.5h6.43v6.43h7.5v-6.43h6.43v-7.5h-6.43z" class="fil4"/><path d="M137.01 123.45c-.69 1.12-1.43 2.24-2.23 3.38 19.22-19.21 19.22-50.47 0-69.68-9.3-9.31-21.68-14.43-34.83-14.43-3.46 0-6.87.36-10.18 1.05 0 0 .23-.03.66-.06l-.66.06s13.37-.2 23.93 4.49c.12.05.23.11.35.16.22.1.44.2.65.3 6.11 2.9 12.68 7.41 18.85 14.39 0 0 24.65 25.93 3.59 60.13-.05.07-.08.14-.13.21" class="fil6"/></g></g></svg>