<svg xmlns="http://www.w3.org/2000/svg" xmlns:xlink="http://www.w3.org/1999/xlink" xml:space="preserve" width="200" height="200" fill-rule="evenodd" clip-rule="evenodd" image-rendering="optimizeQuality" shape-rendering="geometricPrecision" text-rendering="geometricPrecision" viewBox="0 0 200 200"><defs><linearGradient id="id0" x1="11.224%" x2="88.777%" y1="105.389%" y2="0%" gradientUnits="objectBoundingBox"><stop offset="0" stop-color="#3d80c2"/><stop offset="1" stop-color="#6bbd94"/></linearGradient><linearGradient xlink:href="#id0" id="id1" x1="0%" x2="88.588%" y1="162.233%" y2="0%" gradientUnits="objectBoundingBox"/><linearGradient xlink:href="#id0" id="id2" x1="0%" x2="95.636%" y1="166.98%" y2="0%" gradientUnits="objectBoundingBox"/><linearGradient xlink:href="#id0" id="id3" x1="0%" x2="89.089%" y1="489.242%" y2="0%" gradientUnits="objectBoundingBox"/><style>.str0,.str1{stroke:#fefefe;stroke-width:.59;stroke-linejoin:round;stroke-miterlimit:22.9256}.str1{stroke:#2b2a29}.fil0{fill:none}.fil5,.fil6,.fil7{fill:none;fill-rule:nonzero}.fil6,.fil7{fill:#fefefe}.fil6{fill:#e3e3e3}.fil1{fill:url(#id0)}.fil3{fill:url(#id1)}.fil2{fill:url(#id2)}.fil4{fill:url(#id3)}</style></defs><g id="Layer_x0020_1"><g id="_2250755177040"><path d="M97.13 48.22v3.91c1.08-.24 2.2-.35 3.33-.35 4.25 0 8.24 1.65 11.24 4.65 6.2 6.2 6.2 16.28 0 22.48l-11.24 11.24-11.24-11.24c-3-3-4.65-6.99-4.65-11.24 0-.61.03-1.22.1-1.82h-3.85c-.06.6-.09 1.21-.09 1.82 0 5.27 2.05 10.23 5.78 13.95l13.95 13.95 13.95-13.95c3.85-3.84 5.77-8.9 5.77-13.95s-1.92-10.11-5.77-13.95c-3.72-3.73-8.68-5.78-13.95-5.78-1.13 0-2.24.09-3.33.28z" class="fil0 str0"/><path id="_1" d="M97.13 48.22v3.91c1.08-.24 2.2-.35 3.33-.35 4.25 0 8.24 1.65 11.24 4.65 6.2 6.2 6.2 16.28 0 22.48l-11.24 11.24-11.24-11.24c-3-3-4.65-6.99-4.65-11.24 0-.61.03-1.22.1-1.82h-3.85c-.06.6-.09 1.21-.09 1.82 0 5.27 2.05 10.23 5.78 13.95l13.95 13.95 13.95-13.95c3.85-3.84 5.77-8.9 5.77-13.95s-1.92-10.11-5.77-13.95c-3.72-3.73-8.68-5.78-13.95-5.78-1.13 0-2.24.09-3.33.28" class="fil1"/><path d="M103.81 62.63c.33.22.64.48.93.76a6.01 6.01 0 0 1 1.77 4.28c0 1.62-.63 3.13-1.77 4.28a6.03 6.03 0 0 1-4.28 1.77c-1.31 0-2.56-.42-3.6-1.19h-5.01c.44.77.98 1.49 1.62 2.13a9.8 9.8 0 0 0 6.99 2.89 9.8 9.8 0 0 0 6.99-2.89 9.8 9.8 0 0 0 2.89-6.99 9.8 9.8 0 0 0-2.89-6.99 9.7 9.7 0 0 0-3.64-2.31z" class="fil0 str0"/><path id="_1_0" d="M103.81 62.63c.33.22.64.48.93.76a6.01 6.01 0 0 1 1.77 4.28c0 1.62-.63 3.13-1.77 4.28a6.03 6.03 0 0 1-4.28 1.77c-1.31 0-2.56-.42-3.6-1.19h-5.01c.44.77.98 1.49 1.62 2.13a9.8 9.8 0 0 0 6.99 2.89 9.8 9.8 0 0 0 6.99-2.89 9.8 9.8 0 0 0 2.89-6.99 9.8 9.8 0 0 0-2.89-6.99 9.7 9.7 0 0 0-3.64-2.31z" class="fil2"/><path d="M95.21 49.45h-7.8v6.68h-6.68v7.8h6.68v6.69h7.8v-6.69h6.68v-7.8h-6.68z" class="fil0 str0"/><path id="_1_1" d="M95.21 49.45h-7.8v6.68h-6.68v7.8h6.68v6.69h7.8v-6.69h6.68v-7.8h-6.68z" class="fil3"/><path d="M85.35 44.96h-2.42v2.07h-2.07v2.42h2.07v2.07h2.42v-2.07h2.07v-2.42h-2.07z" class="fil0 str0"/><path id="_1_2" d="M85.35 44.96h-2.42v2.07h-2.07v2.42h2.07v2.07h2.42v-2.07h2.07v-2.42h-2.07z" class="fil4"/><path d="M112.4 77.83c-.23.36-.47.72-.72 1.09 6.19-6.2 6.19-16.28 0-22.48-3-3-7-4.65-11.24-4.65-1.12 0-2.22.11-3.28.34 0 0 .07-.01.21-.02l-.21.02s4.31-.07 7.72 1.44c.03.02.07.04.11.06l.21.09c1.97.94 4.09 2.39 6.08 4.65 0 0 7.95 8.36 1.16 19.39-.02.03-.03.05-.04.07z" class="fil5 str0"/><path id="_1_3" d="M112.4 77.83c-.23.36-.47.72-.72 1.09 6.19-6.2 6.19-16.28 0-22.48-3-3-7-4.65-11.24-4.65-1.12 0-2.22.11-3.28.34 0 0 .07-.01.21-.02l-.21.02s4.31-.07 7.72 1.44c.03.02.07.04.11.06l.21.09c1.97.94 4.09 2.39 6.08 4.65 0 0 7.95 8.36 1.16 19.39-.02.03-.03.05-.04.07" class="fil6"/><path d="M97.13 48.22v3.91c1.08-.24 2.2-.35 3.33-.35 4.25 0 8.24 1.65 11.24 4.65 6.2 6.2 6.2 16.28 0 22.48l-11.24 11.24-11.24-11.24c-3-3-4.65-6.99-4.65-11.24 0-.61.03-1.22.1-1.82h-3.85c-.06.6-.09 1.21-.09 1.82 0 5.27 2.05 10.23 5.78 13.95l13.95 13.95 13.95-13.95c3.85-3.84 5.77-8.9 5.77-13.95s-1.92-10.11-5.77-13.95c-3.72-3.73-8.68-5.78-13.95-5.78-1.13 0-2.24.09-3.33.28z" class="fil0 str1"/><path id="_1_4" d="M97.13 48.22v3.91c1.08-.24 2.2-.35 3.33-.35 4.25 0 8.24 1.65 11.24 4.65 6.2 6.2 6.2 16.28 0 22.48l-11.24 11.24-11.24-11.24c-3-3-4.65-6.99-4.65-11.24 0-.61.03-1.22.1-1.82h-3.85c-.06.6-.09 1.21-.09 1.82 0 5.27 2.05 10.23 5.78 13.95l13.95 13.95 13.95-13.95c3.85-3.84 5.77-8.9 5.77-13.95s-1.92-10.11-5.77-13.95c-3.72-3.73-8.68-5.78-13.95-5.78-1.13 0-2.24.09-3.33.28" class="fil1"/><path d="M103.81 62.63c.33.22.64.48.93.76a6.01 6.01 0 0 1 1.77 4.28c0 1.62-.63 3.13-1.77 4.28a6.03 6.03 0 0 1-4.28 1.77c-1.31 0-2.56-.42-3.6-1.19h-5.01c.44.77.98 1.49 1.62 2.13a9.8 9.8 0 0 0 6.99 2.89 9.8 9.8 0 0 0 6.99-2.89 9.8 9.8 0 0 0 2.89-6.99 9.8 9.8 0 0 0-2.89-6.99 9.7 9.7 0 0 0-3.64-2.31z" class="fil0 str1"/><path id="_1_5" d="M103.81 62.63c.33.22.64.48.93.76a6.01 6.01 0 0 1 1.77 4.28c0 1.62-.63 3.13-1.77 4.28a6.03 6.03 0 0 1-4.28 1.77c-1.31 0-2.56-.42-3.6-1.19h-5.01c.44.77.98 1.49 1.62 2.13a9.8 9.8 0 0 0 6.99 2.89 9.8 9.8 0 0 0 6.99-2.89 9.8 9.8 0 0 0 2.89-6.99 9.8 9.8 0 0 0-2.89-6.99 9.7 9.7 0 0 0-3.64-2.31z" class="fil2"/><path d="M95.21 49.45h-7.8v6.68h-6.68v7.8h6.68v6.69h7.8v-6.69h6.68v-7.8h-6.68z" class="fil0 str1"/><path id="_1_6" d="M95.21 49.45h-7.8v6.68h-6.68v7.8h6.68v6.69h7.8v-6.69h6.68v-7.8h-6.68z" class="fil3"/><path d="M85.35 44.96h-2.42v2.07h-2.07v2.42h2.07v2.07h2.42v-2.07h2.07v-2.42h-2.07z" class="fil0 str1"/><path id="_1_7" d="M85.35 44.96h-2.42v2.07h-2.07v2.42h2.07v2.07h2.42v-2.07h2.07v-2.42h-2.07z" class="fil4"/><path d="M112.4 77.83c-.23.36-.47.72-.72 1.09 6.19-6.2 6.19-16.28 0-22.48-3-3-7-4.65-11.24-4.65-1.12 0-2.22.11-3.28.34 0 0 .07-.01.21-.02l-.21.02s4.31-.07 7.72 1.44c.03.02.07.04.11.06l.21.09c1.97.94 4.09 2.39 6.08 4.65 0 0 7.95 8.36 1.16 19.39-.02.03-.03.05-.04.07z" class="fil5 str1"/><path id="_1_8" d="M112.4 77.83c-.23.36-.47.72-.72 1.09 6.19-6.2 6.19-16.28 0-22.48-3-3-7-4.65-11.24-4.65-1.12 0-2.22.11-3.28.34 0 0 .07-.01.21-.02l-.21.02s4.31-.07 7.72 1.44c.03.02.07.04.11.06l.21.09c1.97.94 4.09 2.39 6.08 4.65 0 0 7.95 8.36 1.16 19.39-.02.03-.03.05-.04.07" class="fil6"/><path d="M97.13 48.22v3.91c1.08-.24 2.2-.35 3.33-.35 4.25 0 8.24 1.65 11.24 4.65 6.2 6.2 6.2 16.28 0 22.48l-11.24 11.24-11.24-11.24c-3-3-4.65-6.99-4.65-11.24 0-.61.03-1.22.1-1.82h-3.85c-.06.6-.09 1.21-.09 1.82 0 5.27 2.05 10.23 5.78 13.95l13.95 13.95 13.95-13.95c3.85-3.84 5.77-8.9 5.77-13.95s-1.92-10.11-5.77-13.95c-3.72-3.73-8.68-5.78-13.95-5.78-1.13 0-2.24.09-3.33.28" class="fil1"/><path d="M103.81 62.63c.33.22.64.48.93.76a6.01 6.01 0 0 1 1.77 4.28c0 1.62-.63 3.13-1.77 4.28a6.03 6.03 0 0 1-4.28 1.77c-1.31 0-2.56-.42-3.6-1.19h-5.01c.44.77.98 1.49 1.62 2.13a9.8 9.8 0 0 0 6.99 2.89 9.8 9.8 0 0 0 6.99-2.89 9.8 9.8 0 0 0 2.89-6.99 9.8 9.8 0 0 0-2.89-6.99 9.7 9.7 0 0 0-3.64-2.31z" class="fil2"/><path d="M95.21 49.45h-7.8v6.68h-6.68v7.8h6.68v6.69h7.8v-6.69h6.68v-7.8h-6.68z" class="fil3"/><path d="M85.35 44.96h-2.42v2.07h-2.07v2.42h2.07v2.07h2.42v-2.07h2.07v-2.42h-2.07z" class="fil4"/><path d="M112.4 77.83c-.23.36-.47.72-.72 1.09 6.19-6.2 6.19-16.28 0-22.48-3-3-7-4.65-11.24-4.65-1.12 0-2.22.11-3.28.34 0 0 .07-.01.21-.02l-.21.02s4.31-.07 7.72 1.44c.03.02.07.04.11.06l.21.09c1.97.94 4.09 2.39 6.08 4.65 0 0 7.95 8.36 1.16 19.39-.02.03-.03.05-.04.07" class="fil6"/><path stroke="#fefefe" stroke-miterlimit="22.926" stroke-width=".59" d="M39.35 138.98c.1.01.19.05.26.11.08.06.13.15.16.28.02.21.06.32.1.34q.075.03.21 0c1.17-.28 1.75-.42 1.73-.42-.01 0 .02-.01.08-.01.47-.03.79-.05.94-.07s.29-.05.41-.08c.56-.12.87-.18.92-.18.06-.01.12-.01.19-.01.46.04.7.05.7.05.01 0 .04-.01.1-.05a.6.6 0 0 0 .12-.1c.05-.06.11-.09.16-.09.2.01.35.06.46.16.11.09.16.21.16.37 0 .06-.02.11-.06.16a.5.5 0 0 1-.13.12c-.02.02-.05.03-.08.03-.04.01-.16-.01-.39-.03h-.22c-.07 0-.29.03-.64.09-.06.67-.09 1.03-.09 1.06v.07c0 .07.01.18.03.32.01.13.02.24.02.3 0 .05-.04.15-.12.31-.09.15-.13.36-.12.64 0 .09 0 .27-.01.53 0 .25 0 .46.01.61 0 .15.01.37.04.65.02.28.03.47.04.57.02.47.03.74.04.81v1.44c-.01.01-.01.02-.01.04-.03.08-.04.15-.05.22v.22c0 .08.04.18.12.29s.12.19.12.23c0 .03-.05.07-.13.11-.09.05-.14.09-.17.12s-.08.09-.14.17c-.06.09-.1.13-.14.13-.05-.01-.15-.08-.28-.21s-.19-.22-.19-.27v-.09s.04-.13.13-.38c.03-.09.04-.2.04-.31s-.01-.23-.04-.37c-.05-.18-.08-.3-.08-.34-.01-.04-.01-.08-.01-.13 0-.04.02-.11.05-.2.03-.1.04-.17.04-.23-.01-.06-.02-.25-.05-.58s-.04-.66-.04-.99c-.03-1.04-.04-1.66-.03-1.84 0-.18.01-.34.03-.49.06-.74.09-1.13.09-1.19v-.14c-.01-.34-.02-.55 0-.63.01-.07.04-.16.08-.26-.47.08-.94.13-1.4.15s-1.32.16-2.58.43q-.105 1.305-.03 3.09c.04 1.2.07 1.93.07 2.19-.01.17-.03.42-.04.75-.02.33-.03.57-.02.74v.69c-.01.17-.01.28-.01.32s0 .08.01.11c.02.17.03.3.04.37s.02.14.02.2c0 .07-.05.14-.13.21-.09.07-.17.11-.25.11-.29 0-.47-.08-.55-.23s-.12-.36-.12-.62c0-.13.02-.44.07-.94.05-.49.08-.98.08-1.47-.01-.06-.02-.14-.02-.25v-.26c0-.07.02-.19.05-.35s.05-.28.05-.37c0-.19-.01-.49-.02-.9s-.01-.72-.01-.92c0-.09 0-.22.01-.38q.015-.24.03-.33c0-.01 0-.01-.01 0 0 .01 0-.5.01-1.53-.16.01-.32.04-.47.06-.15.03-.31.07-.48.11-.73.19-1.1.28-1.1.28h-.05c-.18 0-.31-.02-.37-.06a.3.3 0 0 1-.1-.23v-.16c-.01 0 .4-.15 1.21-.45.91-.32 1.36-.48 1.35-.47 0 .01 0 0 .01-.02 0-.04 0-.09-.01-.17 0-.07 0-.13.01-.17.01-.11.05-.2.13-.28.07-.07.16-.11.26-.11zm42.63-7.88h-.65v-6.22h2.34c.69 0 1.23.16 1.62.49s.58.78.58 1.36c0 .59-.19 1.05-.58 1.38s-.93.49-1.62.49h-1.69zm0-3.1h1.67c.5 0 .89-.11 1.16-.32.27-.22.41-.53.41-.95 0-.41-.14-.72-.41-.94-.27-.21-.66-.32-1.16-.32h-1.67zm9.76-.34v-2.78h.64v6.22h-.64v-2.84h-3.86v2.84h-.65v-6.22h.65v2.78zm6.97 3.44-.71-1.77h-3.16l-.73 1.77h-.66l2.58-6.22h.78l2.59 6.22zm-.97-2.38-1.32-3.22-1.34 3.22zm5.14-3.84c.69 0 1.22.15 1.59.46q.57.45.57 1.29 0 .795-.57 1.26-.555.465-1.53.48h-.22l2.29 2.73h-.79l-2.25-2.72h-.86v2.72h-.65v-6.22zm-1.77 2.92h1.75c.49 0 .87-.1 1.13-.3.25-.2.38-.49.38-.87s-.13-.66-.39-.86-.63-.3-1.12-.3h-1.75zm11.15 3.3v-5.48l-2.26 4.76h-.67l-2.25-4.73v5.45h-.65v-6.22h.96l2.28 4.75 2.27-4.75h.96v6.22zm6.97 0-.72-1.77h-3.15l-.73 1.77h-.67l2.59-6.22h.78l2.58 6.22zm-.98-2.38-1.32-3.22-1.33 3.22zm-33.29-8.86-1.49-3.98h-7.29l-1.49 3.98h-3.54l6.64-17.08h4.14l6.67 17.08zm-2.66-7.12-2.46-6.59-2.49 6.59zm11.89.1v7.02h-3.4v-17.08h3.4v6.91h1.61l5.66-6.91h4.27l-7.18 8.32 7.71 8.76h-4.41l-6.08-7.02zm13.98 7.02v-17.08h3.39v17.08zm18.88-12.78c-1.54-.96-3.16-1.44-4.85-1.44-.98 0-1.77.18-2.37.55q-.9.54-.9 1.5c0 .57.29.99.88 1.27.58.27 1.47.51 2.66.7l.95.15c3.63.6 5.44 2.19 5.44 4.78 0 1.21-.32 2.23-.95 3.08-.64.84-1.48 1.47-2.54 1.89-1.06.41-2.22.62-3.49.62-1.33 0-2.64-.2-3.93-.59-1.28-.39-2.37-.94-3.27-1.66l1.76-2.75c.66.53 1.48.98 2.44 1.33s1.96.52 3 .52c.98 0 1.78-.18 2.42-.56.63-.37.95-.88.95-1.51 0-.56-.29-.97-.86-1.26-.57-.28-1.49-.53-2.78-.74l-1.07-.17c-3.48-.54-5.22-2.17-5.22-4.88 0-1.14.31-2.12.92-2.94.62-.83 1.45-1.44 2.48-1.86 1.03-.41 2.17-.62 3.4-.62 1.21 0 2.33.14 3.37.43 1.04.28 2.1.74 3.17 1.37zm18.73 35.34c.24 0 .43.15.57.46s.21.77.21 1.39c0 .06-.01.15-.01.26 0 .1-.01.18-.01.24-.01 1.38.02 2.09.1 2.14.07.05.11.07.13.07.09 0 .18-.02.27-.08s.56-.82 1.42-2.29c.48-.81.76-1.25.84-1.31.09-.07.17-.1.26-.1.08 0 .14.01.2.04.06.04.28.76.66 2.19.24.89.4 1.42.5 1.57.1.16.22.25.36.28.02.01.05.01.08.01s.06 0 .1-.01c.29-.04.54-.19.75-.43q.315-.36.54-.48c.06-.03.13-.05.2-.05s.13.01.19.05c.02.02.05.06.06.11.02.05.03.12.03.2 0 .17-.25.44-.76.81-.5.38-.84.57-1.01.57-.26 0-.49-.05-.69-.16-.21-.11-.36-.28-.47-.53-.11-.22-.22-.45-.32-.68s-.15-.4-.16-.48c-.23-1.36-.38-2.03-.44-2.03-.07 0-.14.12-.23.37-.18.49-.32.77-.41.86-.08.08-.17.24-.26.47-.25.59-.54 1.08-.88 1.45s-.69.55-1.04.55c-.22 0-.38-.06-.48-.19s-.15-.33-.14-.58v-.72c-.06-1.43-.08-2.13-.08-2.1 0 .02 0 .02.01-.02v-.39c-.02-.14-.05-.29-.1-.44q-.075-.225-.15-.24c-.1 0-.23.03-.39.1-.15.06-.29.14-.39.23-.34.28-.51.42-.51.41-.07 0-.15-.03-.23-.08-.08-.06-.12-.12-.12-.19q0-.135.09-.24c.06-.08.16-.15.3-.23.94-.52 1.4-.78 1.37-.78zm8.53 0c.24 0 .43.15.57.46s.2.77.2 1.39v.26c-.01.1-.01.18-.01.24-.01 1.38.02 2.09.1 2.14.07.05.11.07.13.07.09 0 .18-.02.27-.08s.56-.82 1.42-2.29c.48-.81.76-1.25.84-1.31.09-.07.17-.1.26-.1.08 0 .14.01.2.04.06.04.28.76.66 2.19.24.89.4 1.42.5 1.57.1.16.22.25.36.28.02.01.05.01.08.01s.06 0 .1-.01c.29-.04.54-.19.75-.43s.38-.4.54-.48c.06-.03.13-.05.2-.05s.13.01.19.05c.02.02.05.06.06.11.02.05.03.12.03.2 0 .17-.25.44-.76.81-.5.38-.84.57-1.01.57-.26 0-.49-.05-.69-.16-.21-.11-.36-.28-.47-.53-.11-.22-.22-.45-.32-.68s-.15-.4-.16-.48c-.23-1.36-.38-2.03-.44-2.03-.07 0-.14.12-.23.37-.18.49-.32.77-.41.86-.09.08-.18.24-.26.47-.25.59-.54 1.08-.88 1.45s-.69.55-1.05.55c-.21 0-.37-.06-.47-.19-.11-.13-.15-.33-.14-.58v-.72c-.06-1.43-.08-2.13-.08-2.1 0 .02 0 .02.01-.02v-.39c-.02-.14-.05-.29-.1-.44s-.1-.23-.16-.24c-.09 0-.22.03-.38.1a1.4 1.4 0 0 0-.4.23c-.34.28-.51.42-.51.41-.07 0-.14-.03-.22-.08-.08-.06-.12-.12-.12-.19q0-.135.09-.24c.06-.08.16-.15.29-.23.95-.52 1.4-.78 1.38-.78zm9.02-5.19c.14 0 .23.01.25.02.02.02.03.03.03.04 0 .05-.07.29-.22.72s-.22.76-.23.98c-.01.21-.02.31-.02.31 0-.01-.05.2-.16.61-.14.56-.22.88-.23.96s-.01.17-.01.27c-.01.07-.01.17-.01.32.01.15.01.26.01.33-.01.2-.03.36-.07.46s-.06.32-.06.65c-.01.27.02.46.1.58q.12.18.12.63c0 .11-.06.21-.2.31q-.195.15-.33.15c-.05.01-.08-.05-.1-.16-.03-.12-.05-.2-.06-.25-.03-.02-.07-.07-.13-.13q-.09-.09-.09-.15c0-.01.03-.03.08-.08.06-.04.08-.08.08-.12 0-.12 0-.37-.01-.74-.01-.38-.01-.71-.01-1 0-.05.01-.11.03-.2.02-.08.04-.15.05-.19.01-.09.01-.24 0-.43 0-.2.01-.35.02-.45.01-.09.05-.22.1-.39q.09-.27.12-.39c.02-.09.03-.22.04-.39q.015-.255.03-.36c.07-.67.17-1.16.3-1.46s.32-.45.58-.45zm-.9 10.37c.11 0 .21.11.3.32q.15.315.15.57c0 .06-.03.12-.09.17s-.17.09-.34.14c-.08.01-.13.01-.17.01-.03 0-.06 0-.08-.01-.06-.04-.11-.12-.14-.24q-.06-.195-.06-.45c0-.16.04-.28.12-.37.07-.08.18-.13.31-.14zm-69.93-3.5c.07 0 .13.02.2.05q.09.06.09.12a8 8 0 0 1-.08 1.08c-.03.16-.04.26-.03.29 0 .04.01.07.03.1 0 .02 0 .04.01.06.01.01.03.02.04.02.01.01.03.02.06.02.02 0 .06-.01.11-.02.14-.04.3-.15.49-.35.18-.19.28-.29.3-.31.06-.06.12-.13.18-.19s.09-.1.1-.12c.03-.03.05-.05.08-.07s.19-.06.48-.13c.11-.02.24-.07.4-.15s.32-.12.49-.12c.35 0 .65.16.89.47s.26.67.06 1.06c-.04.08-.08.19-.12.32-.03.14-.06.23-.08.28-.03.08-.09.17-.18.29-.08.12-.14.21-.17.26q-.105.195-.18.3c-.05.07-.26.17-.64.3-.43.14-.68.2-.76.18-.08-.03-.19-.06-.34-.12-.16-.05-.3-.1-.41-.15s-.31-.13-.59-.25c-.17.25-.28.59-.35 1.02-.08.43-.13 1.04-.16 1.83-.01.1-.02.2-.02.31 0 .12.01.38.02.8 0 .37-.05.67-.13.9-.08.24-.18.35-.3.35-.09 0-.22-.04-.37-.12-.16-.08-.24-.16-.24-.23 0-.02.01-.05.02-.1s.02-.08.02-.1q0-.345-.09-.39c-.05-.04-.08-.16-.08-.39s.04-.44.13-.62c.09-.19.15-.39.18-.63v-.21c-.03-.23-.04-.37-.04-.4.01-.03.02-.06.04-.09 0-.04.05-.11.14-.22.08-.1.13-.21.14-.33.01-.09.01-.31.01-.63s.03-.73.08-1.22c.06-.56.07-.96.04-1.19-.04-.23-.05-.42-.04-.58 0-.26.07-.49.2-.69.13-.19.25-.29.37-.29zm.81 2.44c.11.16.29.3.53.4.24.11.46.17.67.17.22 0 .44-.14.69-.41.24-.28.38-.51.43-.71 0-.04.01-.09 0-.14v-.2c-.03-.15-.08-.26-.15-.32a.36.36 0 0 0-.28-.11h-.15zm5.88-3.61c.19 0 .32.01.37.02s.35.24.87.69c.38.33.63.63.76.89q.18.39.18.87c0 .75-.27 1.4-.81 1.94q-.81.81-1.56.81c-.54-.01-.95-.17-1.23-.49-.28-.33-.42-.89-.41-1.68v-.76q.015-.21.15-.81c.1-.51.3-.88.59-1.12s.66-.36 1.09-.36zm-.07.74c-.07 0-.18.04-.32.12s-.24.16-.31.23c-.13.12-.22.29-.27.49-.06.2-.08.44-.08.73v.55c.01.03.02.05.02.08.09.35.14.53.15.53v.01c0 .04-.01.11-.04.19-.03.09-.03.15-.03.18 0 .15.07.27.19.38s.28.16.47.16c.41 0 .8-.2 1.16-.6.37-.4.55-.86.55-1.4 0-.13-.05-.31-.14-.52-.1-.21-.2-.38-.32-.53-.11-.12-.28-.26-.5-.39-.22-.14-.4-.21-.53-.21zm6.53-6.15c.4 0 .73.16.98.49.26.33.38.75.38 1.25 0 .81-.3 1.57-.92 2.28s-1.47 1.25-2.55 1.6c-.03.17-.05.4-.07.67s-.03.46-.03.56v-.01c-.01-.01.07.29.22.92.15.69.36 1.16.63 1.42q.405.39.99.39c.41 0 .76-.13 1.05-.38.29-.26.43-.64.43-1.16 0-.44-.13-.8-.4-1.07s-.59-.41-.94-.41c-.15 0-.3.04-.47.13-.17.08-.3.18-.39.29-.31.35-.45.52-.45.51h.02c-.12.01-.2-.03-.24-.1a.75.75 0 0 1-.06-.33c0-.33.17-.62.5-.86s.74-.37 1.22-.38c.68 0 1.18.21 1.49.62s.47.98.47 1.69c-.01.74-.22 1.29-.64 1.67-.41.37-.98.56-1.69.56q-.915 0-1.56-.69c-.42-.46-.68-.99-.77-1.59-.14-.87-.21-1.41-.2-1.62s.05-.44.11-.68c-.52.11-1.06.09-1.61-.06q-.84-.225-.84-.6c0-.25.07-.47.21-.67.14-.19.28-.19.42.03.19.27.49.44.88.52.4.08.75.06 1.06-.05q.24-2.565.93-3.75c.45-.8 1.06-1.19 1.84-1.19zm-2.02 4.8c.62-.16 1.2-.52 1.73-1.08q.81-.84.81-1.71c0-.36-.06-.66-.19-.9-.12-.24-.29-.36-.48-.36-.33 0-.66.26-1 .8-.33.53-.55 1.16-.65 1.9-.14.88-.21 1.31-.21 1.31 0-.01 0 .01-.01.04zm5.49 3.28c0-.01.01-.03.02-.06.02-.03.03-.06.04-.09 0-.01 0-.03.01-.06.01-.04.02-.06.03-.07 0-.02 0-.03.01-.05.01-.01.16-.16.46-.45.01-.01.05-.07.13-.18s.27-.23.57-.35c.59-.25 1.05-.28 1.39-.09.34.18.51.55.51 1.09q0 .51-.06.81c-.04.19-.14.43-.31.7-.36.57-.65.91-.88 1.02-.22.1-.49.16-.82.16-.46 0-.89-.12-1.28-.35s-.58-.53-.58-.89v-.29c0-.13 0-.22.01-.28 0-.03 0-.11-.01-.24 0-.13 0-.23.01-.32 0-.06.02-.16.07-.31.04-.15.07-.27.07-.36 0-.21-.04-.52-.1-.92-.06-.41-.09-.64-.09-.7 0-.02.01-.05.02-.08.02-.04.03-.07.03-.1s-.02-.09-.05-.17a.5.5 0 0 1-.06-.2q0-.18.12-.27c.07-.06.19-.1.35-.1.08 0 .16.02.23.06.07.03.11.08.11.12 0 .02 0 .05-.01.09-.01.05-.02.08-.02.1-.01.05 0 .13.02.23.01.09.02.17.02.21v.35c-.01.15-.01.26-.01.34v.04c0 .01.02.17.07.48.01.08.01.15.01.22s0 .14-.01.21c-.06.37-.08.58-.07.62s.03.09.05.13zm1.08 1.67c.14.01.28-.02.4-.09.13-.07.33-.27.61-.61.11-.15.2-.28.25-.36.05-.09.08-.28.08-.57 0-.26-.06-.46-.17-.6a.6.6 0 0 0-.46-.2c-.26.01-.61.21-1.05.63-.45.41-.67.73-.67.96 0 .31.09.53.26.66q.255.195.75.18zm4.04-4.18c.17 0 .3.04.38.13s.12.27.12.53c0 .03 0 .05-.01.06 0 .01-.04.56-.1 1.66.92-.07 1.42-.16 1.5-.26.07-.1.17-.36.27-.8.08-.33.15-.54.23-.66.07-.11.19-.23.35-.38q.27-.255.48-.33c.14-.05.32-.07.54-.07.11 0 .21.01.3.02s.33.11.74.3q.48.24.57.39c.07.1.14.24.23.43.28.65.42 1.02.44 1.09.01.07.02.14.02.2 0 .31-.08.65-.23 1s-.3.62-.44.79c-.17.19-.4.35-.68.48-.28.12-.59.19-.92.19-.59 0-1.04-.17-1.34-.51-.3-.33-.44-.83-.43-1.49-.17.08-.39.12-.66.13s-.59.04-.96.1q0 .33.03.63c.02.19.06.46.12.8.01.07.01.12.01.15-.01.03-.01.04-.01.05-.02.04-.05.07-.1.08a.4.4 0 0 1-.17.03c-.19 0-.32-.05-.39-.16-.06-.11-.09-.31-.09-.59 0-.05 0-.12.01-.22.01-.09.02-.17.02-.22s-.01-.11-.04-.19a1 1 0 0 1-.03-.18c-.01-.01-.01-.04-.01-.06v-.11c-.28.05-.49.06-.62.02-.14-.03-.2-.17-.2-.41 0-.05 0-.08.02-.11.01-.03.28-.06.8-.11 0-.2.01-.36.02-.47l.03-.31c.04-.57.07-.85.07-.84v-.01q0-.18-.03-.39c-.02-.14-.03-.22-.03-.26 0-.03.02-.05.06-.08a.22.22 0 0 1 .13-.04zm3.78.54c-.09 0-.19.03-.29.1-.11.08-.21.17-.32.3-.15.17-.25.32-.29.46-.05.14-.07.58-.07 1.33 0 .52.08.88.25 1.08.17.19.46.29.85.29.13 0 .28-.05.45-.14s.3-.19.4-.31c.26-.31.42-.61.48-.88.06-.28-.01-.7-.23-1.27-.09-.2-.16-.35-.23-.45q-.09-.15-.48-.33c-.28-.1-.43-.16-.46-.17-.02-.01-.05-.01-.06-.01zm6.67-.12q.27 0 .39.12c.08.08.13.24.15.49 0 .16 0 .34-.01.54 0 .21-.01.34-.01.4v.15c0 .06.01.15.02.27.14.01.37-.04.7-.15.32-.11.57-.22.76-.33.22-.14.34-.38.38-.74.03-.36.23-.54.6-.55q.015.015 0 0c-.01 0 .15.5.46 1.5.11.37.16.55.16.55 0-.01.15.26.44.79.07.14.19.26.37.36s.35.15.52.15c.33.01.72-.14 1.15-.45.44-.32.71-.47.8-.47.04 0 .09.03.13.09.05.05.07.11.07.16 0 .33-.25.65-.74.94q-.735.45-1.5.45c-.52 0-.92-.14-1.19-.4-.26-.26-.52-.77-.76-1.51-.15-.4-.23-.62-.24-.64q-.03-.03-.06-.03c-.04 0-.12.06-.23.17-.11.12-.21.2-.29.23-.03.01-.06.02-.1.04q-.045.03-.06.03c-.02.01-.03.01-.04.02q-.015 0-.18.09c-.08.04-.14.07-.18.08-.04.02-.31.06-.81.14-.09.51-.09.89.01 1.13.09.23.14.43.14.58 0 .04-.03.08-.08.1-.06.02-.12.03-.19.03q-.3 0-.42-.15t-.12-.57c-.01-.03-.01-.09-.01-.2.01-.1.01-.18.01-.24-.02-.1-.04-.18-.06-.23s-.05-.16-.07-.33c-.35.07-.58.07-.68 0-.11-.06-.16-.18-.16-.36 0-.08.03-.14.1-.18.06-.04.29-.05.7-.03v-.53c.01 0 .01-.36.01-1.07q0-.06-.03-.15a.4.4 0 0 1-.04-.16q0-.045.06-.09a.22.22 0 0 1 .13-.04zm8.39-.86h.25c0 .01.2.16.61.45.16.12.24.19.25.22 0 .03.01.06.01.11.01.15.02.26.05.32.02.06.05.09.1.09.1 0 .23-.03.36-.11.13-.07.22-.1.27-.1.12 0 .23.16.32.48s.13.62.11.89c-.03.31-.04.48-.04.52.01.04.02.06.04.08.01.03.03.07.06.13s.05.1.07.13c0 .02 0 .05.01.09 0 .04 0 .09-.01.16-.02.12-.02.21-.02.27s0 .12.02.16c.02.09.06.21.12.37.07.16.11.25.15.29.17.28.26.42.26.43.01.01.01.02.02.03.02.09.03.17.03.22 0 .06-.01.1-.03.14-.02.03-.06.05-.1.07-.04.01-.09.03-.15.05-.07.01-.12.01-.16.01s-.07 0-.1-.01a1.5 1.5 0 0 1-.31-.24c-.12-.13-.19-.22-.2-.27a.4.4 0 0 1 0-.15v-.16q0 .045-.12-.21c-.08-.16-.14-.36-.17-.6h-.02c0-.01.01-.12.02-.34 0-.1-.02-.21-.06-.32s-.09-.17-.13-.17q-.09 0-.18.12a.7.7 0 0 1-.12.11c-.58.35-.87.51-.86.49s.01-.02 0 .02c-.01.03-.02.03 0 0 .01-.03-.3.29-.94.95-.09.09-.16.16-.22.2-.07.04-.23.07-.5.09-.16.01-.25.02-.27.02-.02-.01-.03-.02-.04-.02-.13-.04-.26-.15-.4-.35a.9.9 0 0 1-.2-.54c0-.09.03-.25.09-.47s.11-.39.13-.48c.21-1.1.48-1.9.82-2.41.33-.51.73-.76 1.18-.76zm-.12.8c-.16.02-.3.09-.43.2-.12.12-.29.48-.51 1.09-.14.4-.21.59-.21.59 0-.01-.01.07-.01.23-.01.06-.03.16-.05.3-.02.13-.05.29-.08.48-.02.11-.03.18-.03.23.01.04.02.08.03.11.02.05.05.09.08.13s.06.05.1.04c.21 0 .58-.3 1.09-.89s.78-1.05.8-1.39c.01-.23-.06-.47-.23-.74-.16-.27-.34-.4-.55-.38zm4.44-.4q.165.015.27.09c.07.06.13.38.2.98v.5c-.02.82 0 1.41.06 1.76.05.35.15.52.28.52.08 0 .15-.02.23-.06.07-.05.42-.57 1.02-1.56.67-1.08 1.01-1.63 1.03-1.63.02-.01.06-.01.1-.01.18 0 .3.03.37.08.06.06.2.7.42 1.95.14.82.24 1.27.3 1.34s.14.11.24.11c.16 0 .32-.01.46-.04s.33-.08.55-.16c.32-.12.57-.1.73.05.17.15.25.68.25 1.59 0 .75-.08 1.59-.23 2.51-.15.93-.32 1.64-.52 2.12-.29.66-.57 1.14-.85 1.42-.29.29-.63.43-1.05.43-.36 0-.75-.1-1.16-.32-.42-.21-.74-.52-.97-.93-.19-.34-.33-.7-.43-1.08-.1-.37-.14-.73-.14-1.09 0-.22.02-.36.06-.44.04-.09.11-.12.21-.11.13 0 .22.03.28.11.07.07.13.3.19.69q.015.09 0 .27c-.02.13-.02.22 0 .28.09.54.34.99.73 1.35q.6.54 1.11.54c.63 0 1.13-.61 1.51-1.81.38-1.21.58-2.49.58-3.86 0-.45-.04-.73-.12-.83a.4.4 0 0 0-.34-.15c-.1 0-.23.02-.38.08-.16.05-.35.08-.58.08h-.64s-.13-.64-.4-1.91c-.2-.89-.31-1.35-.32-1.36s-.02-.01-.03-.01q-.12 0-.3.66c-.13.44-.35.89-.68 1.37-.18.25-.43.5-.75.76-.32.25-.57.38-.77.38-.13.01-.24-.05-.36-.19a.84.84 0 0 1-.2-.46h-.02s.01-.18.02-.55q0-.12-.03-.33a3 3 0 0 1-.03-.31c-.01-.03-.01-.06-.01-.1v-.44c-.01-.05-.02-.16-.04-.31-.02-.16-.02-.29-.02-.39v-.34c0-.05-.02-.11-.04-.2a.5.5 0 0 1-.04-.18c-.01-.08-.03-.15-.03-.21s-.01-.11-.01-.17q0-.36.06-.42c.04-.04.12-.06.23-.06zm-86.5 5.2-.2 1.65c-.1.8-.38 1.55-.83 2.27s-.95 1.07-1.5 1.07c-.36 0-.76-.14-1.18-.41-.43-.26-.7-.59-.83-1-.04-.1-.06-.18-.09-.23a.7.7 0 0 0-.12-.18.9.9 0 0 1-.15-.18.5.5 0 0 1-.08-.15c-.01-.01-.02-.04-.03-.06-.01-.03-.04-.15-.09-.38-.01-.04-.02-.09-.04-.13-.01-.04-.03-.07-.04-.1s-.05-.1-.13-.21a.7.7 0 0 1-.12-.26c0-.16.03-.29.08-.39.06-.11.12-.16.19-.16.16 0 .31.06.45.19s.22.29.22.48c0 .04 0 .12-.02.25-.01.13 0 .23.02.3v.02c0 .01.12.15.34.44l.03.06q.03.015.21.36c.16.29.36.54.59.72.24.19.46.29.67.29.42 0 .84-.3 1.24-.88q.6-.87.66-2.07c.01-.39.04-.89.1-1.49q.09-.9.09-1.23 0-1.32-.03-1.35c-.02-.01-.03-.02-.04-.02-.05 0-.12.06-.23.17-.11.12-.2.2-.27.26a.73.73 0 0 1-.36.15c-.14.02-.25.05-.32.07-.42.17-.63.24-.63.24s-.08-.01-.23-.01c-.41.01-.67-.09-.78-.31-.11-.21-.07-.47.12-.77.04-.08.12-.26.21-.52.1-.27.15-.44.15-.53a.3.3 0 0 0-.07-.1c-.03-.03-.07-.05-.1-.05-.08 0-.26.07-.52.2-.26.14-.44.2-.52.19a.34.34 0 0 1-.31-.13c-.09-.09-.13-.18-.13-.26q0-.015 0 0c0 .01.36-.17 1.07-.52.6-.29.99-.47 1.17-.55.17-.07.31-.11.41-.11.06 0 .13.03.2.09.07.05.1.11.1.16 0 .11-.13.37-.41.79s-.48.87-.61 1.38c-.01.06-.02.11-.02.14 0 .04.01.07.02.08.01.03.04.05.08.06.04.02.1.02.18.01q.3 0 .72-.21c.29-.14.58-.33.86-.57q.15-.12.33-.45c.12-.22.26-.33.41-.34.06 0 .1.03.14.09s.06.32.06.8c0 .09 0 .21-.02.37q-.03.24-.03.36c0 .13.01.32.04.56.03.25.04.43.04.55 0 .16 0 .3-.01.44-.01.13-.05.48-.11 1.05zm1.28-3.72c.17 0 .29.04.37.12q.105.12.18.6l.06.65s.01 0 .02.01q.255.57.27.57c.01.01.02.01.04.01.01 0 .11-.14.28-.42s.37-.53.62-.76c.41-.4.76-.68 1.06-.84.29-.16.63-.14 1.01.06q.105.06.18.12c.06.03.16.35.33.95.05.24.11.43.17.57q.09.21.15.21c.04 0 .14-.07.3-.2.16-.14.29-.27.41-.4l.33-.39c-.01.01 0 .01.01 0l.02-.02c0-.01.13-.07.38-.2.27-.13.44-.21.52-.23.08-.01.18-.02.28-.02.26 0 .45.05.56.15s.17.3.18.58v.24c-.01.1-.01.18 0 .22q0 .345.06.57c.03.14.08.24.14.29.23.23.34.36.35.38v.05c-.01.06-.07.16-.18.29-.12.13-.22.19-.29.19-.19 0-.35-.07-.47-.21s-.24-.24-.35-.3c-.17-.07-.26-.12-.27-.16a.8.8 0 0 1-.02-.19c0-.05.02-.12.07-.2.05-.09.09-.15.1-.18s.02-.06.02-.1c0-.03-.01-.16-.02-.37-.02-.26-.05-.4-.06-.43-.02-.04-.04-.06-.07-.06-.15 0-.5.3-1.04.91-.54.6-.89.9-1.03.9h-.14q-.06-.015-.72-1.71-.075-.195-.27-.45c-.12-.17-.22-.25-.28-.25-.07 0-.19.08-.36.26-.16.17-.32.36-.46.57-.08.11-.16.21-.25.31-.08.1-.16.2-.23.31q-.15.21-.27.42c-.08.14-.15.25-.2.33-.12.15-.24.27-.36.35q-.18.12-.33.12c-.13 0-.24-.03-.33-.08s-.27-.67-.53-1.85c-.02-.1-.07-.24-.15-.43-.07-.18-.1-.35-.1-.51 0-.12.02-.21.07-.27.05-.05.13-.08.24-.08zm7.02-3.1c.04 0 .06.01.08.02.01.01.01.04.01.08 0 .21-.21.45-.63.74s-.96.54-1.63.75c-.83.27-1.33.41-1.51.42s-.38.01-.62.01c-.19 0-.32-.02-.37-.06-.05-.05-.07-.13-.07-.25 0-.13.04-.23.13-.3.09-.08.22-.11.38-.11.06 0 .15 0 .27.01s.2.01.27.01c.2 0 .44-.03.7-.1.27-.06.66-.2 1.19-.41.31-.1.66-.27 1.06-.49.41-.22.65-.32.74-.32zm2.82 4.17c0-.01.01-.03.02-.06s.03-.06.03-.09c0-.01.01-.03.02-.06.01-.04.02-.06.02-.07 0-.02.01-.03.02-.05l.45-.45c.01-.01.06-.07.14-.18s.27-.23.56-.35c.59-.25 1.06-.28 1.4-.09.34.18.51.55.51 1.09q0 .51-.06.81c-.04.19-.15.43-.32.7q-.525.855-.87 1.02c-.22.1-.5.16-.82.16-.46 0-.89-.12-1.28-.35s-.58-.53-.58-.89v-.29c0-.13 0-.22.01-.28 0-.03 0-.11-.01-.24 0-.13 0-.23.01-.32 0-.06.02-.16.07-.31q.06-.225.06-.36c0-.21-.03-.52-.09-.92-.06-.41-.1-.64-.1-.7 0-.02.01-.05.03-.08.02-.04.03-.07.03-.1s-.02-.09-.06-.17a.6.6 0 0 1-.05-.2q0-.18.12-.27c.07-.06.19-.1.35-.1.08 0 .16.02.23.06.07.03.11.08.11.12 0 .02-.01.05-.02.09-.01.05-.01.08-.01.1-.01.05 0 .13.01.23.02.09.03.17.03.21 0 .08 0 .2-.01.35v.38q0 .015.06.48c.01.08.02.15.02.22s-.01.14-.02.21c-.05.37-.07.58-.06.62s.02.09.05.13zm1.08 1.67c.14.01.27-.02.4-.09.12-.07.32-.27.6-.61.12-.15.2-.28.26-.36.05-.09.08-.28.08-.57q0-.39-.18-.6a.58.58 0 0 0-.45-.2c-.26.01-.61.21-1.06.63q-.66.615-.66.96c0 .31.08.53.25.66s.42.19.76.18zm6.46-3.98c.01.01.01.02.02.04.01.01.02.15.02.43q0 .225-.03.57c-.02.22-.03.38-.03.47-.01.17-.01.28-.01.32 0 .05 0 .1.01.13.01.33.05.63.11.9s.13.4.22.4c.23 0 .45-.23.65-.69.21-.46.37-.75.47-.86.2-.22.49-.48.88-.8.38-.32.65-.48.79-.48.05 0 .12.06.2.16.08.11.12.19.12.26 0 .03-.01.07-.03.11s-.31.27-.86.69c-.31.25-.49.43-.53.56-.05.13-.07.29-.07.49 0 .35.09.62.27.83q.27.3.84.3c.28 0 .57-.07.88-.22.3-.14.57-.31.79-.52q.12-.105.27-.18c.1-.05.2-.08.31-.08.04 0 .09.04.12.12.05.08.07.15.08.22 0 .05-.04.12-.13.2-.08.08-.22.2-.39.35-.44.36-.81.6-1.12.71-.3.12-.62.18-.95.18-.42 0-.81-.12-1.16-.35s-.52-.55-.52-.94q-.585.72-.81.93c-.15.14-.28.21-.39.2h-.1c-.03 0-.2-.46-.51-1.37-.11-.3-.16-.52-.14-.67q.03-.225.03-.3c-.01-.04-.02-.1-.04-.2-.01-.1-.02-.18-.02-.23 0-.08.01-.19.03-.34.02-.14.03-.24.04-.3v-.41c-.01-.25.01-.42.05-.51.05-.1.16-.15.34-.16.12 0 .19.01.22.01.03.01.06.02.08.03zm10.46-.16c.2.12.3.19.32.21s.03.05.03.07c-.01.34-.04.57-.1.68s-.14.22-.25.33c-.53.54-.79.8-.79.8v.09c-.01.03 0 .06.05.08.04.01.11.02.19.02.04.01.11.01.19.01.09 0 .15-.01.18-.01.55.05.98.27 1.29.68.32.41.48.94.49 1.59 0 .24-.05.51-.14.83s-.28.83-.58 1.52c-.5 1.14-.97 1.91-1.41 2.3-.43.39-.92.59-1.45.59-.47 0-.86-.15-1.16-.46s-.56-.79-.77-1.45c-.02-.08-.07-.37-.15-.88s-.12-.81-.12-.89c0-.13.05-.26.14-.39.1-.12.19-.18.29-.17.14 0 .25.04.3.12q.09.12.09.66c0 .05-.02.14-.05.26-.03.13-.04.22-.04.29 0 .53.15 1.04.46 1.51s.69.71 1.15.72c.4 0 .81-.23 1.23-.68.41-.44.75-1.1 1.01-1.96.35-1.18.53-1.76.53-1.75v-.05c0-.61-.15-1.06-.45-1.37-.3-.3-.76-.45-1.37-.45-.04 0-.1 0-.18.01s-.14.01-.18.01c-.34 0-.52 0-.54-.02-.03-.01-.04-.03-.04-.07 0-.19.07-.38.2-.58.13-.21.34-.45.63-.75.26-.26.41-.41.43-.46s.03-.1.03-.16q-.015-.15-.18-.27a.58.58 0 0 0-.37-.13c-.33 0-.63.07-.89.22-.26.14-.42.21-.49.21-.05.01-.08-.01-.11-.06a.3.3 0 0 1-.04-.15q0-.345.51-.6c.34-.17.76-.25 1.25-.25.2.01.36.02.46.05.11.02.24.07.4.15zm4.26.26c.25 0 .47.09.67.29s.29.45.29.77a1.2 1.2 0 0 1-.09.43c-.05.1-.12.16-.2.16-.09.01-.17 0-.22-.02-.06-.03-.09-.06-.08-.1 0-.04.01-.1.04-.2q.03-.135.03-.21c0-.06-.06-.12-.17-.19a.6.6 0 0 0-.31-.1c-.17 0-.4.17-.67.51s-.41.58-.41.74.06.27.18.35c.11.07.29.1.52.1.07 0 .22-.04.44-.13s.46-.14.72-.14c.24 0 .41.08.51.23.09.14.14.45.14.92v.06c0-.03-.05.48-.14 1.52-.01.07-.02.15-.02.24-.01.08 0 .24.02.49q.06 1.845-.6 3.36c-.45 1.01-.91 1.51-1.41 1.51-.29 0-.56-.02-.81-.08-.24-.05-.89-.34-1.94-.86-.21-.1-.5-.36-.89-.78-.38-.43-.57-.7-.57-.82q0-.075.06-.21c.04-.09.06-.16.06-.2a.2.2 0 0 0-.03-.14.3.3 0 0 1-.04-.12c.01-.06.05-.11.13-.16.09-.04.17-.07.25-.07.17 0 .31.03.42.08s.17.12.17.21c0 .03-.03.09-.08.18a.4.4 0 0 0-.07.21c0 .29.36.71 1.09 1.24.72.54 1.3.81 1.72.81.56 0 1.01-.48 1.34-1.45s.5-1.91.5-2.83c0-.09-.01-.22-.02-.38-.02-.16-.02-.28-.02-.35 0-.06.03-.14.08-.24q.09-.15.09-.24c0-.06-.01-.14-.04-.27-.03-.12-.03-.21-.03-.28 0-.06.01-.14.02-.25.02-.11.02-.2.02-.26 0-.09-.04-.17-.13-.23a.54.54 0 0 0-.3-.1c-.02 0-.15.07-.38.2-.24.13-.53.19-.89.19-.23 0-.41-.08-.57-.24-.15-.16-.22-.41-.22-.74 0-.62.2-1.18.61-1.68.42-.49.82-.73 1.23-.73zm4.51-.46c.2 0 .32.01.38.02q.075.015.87.69c.37.33.62.63.75.89s.19.55.19.87c0 .75-.27 1.4-.81 1.94-.55.54-1.07.81-1.57.81-.54-.01-.95-.17-1.23-.49-.28-.33-.42-.89-.41-1.68 0-.37.01-.62.01-.76s.05-.41.14-.81c.11-.51.31-.88.6-1.12q.435-.36 1.08-.36zm-.07.74c-.07 0-.17.04-.31.12s-.25.16-.32.23c-.12.12-.21.29-.27.49-.05.2-.08.44-.08.73 0 .34 0 .52.01.55 0 .03.01.05.02.08.09.35.13.53.14.53l.01.01c0 .04-.02.11-.04.19q-.045.135-.03.18c0 .15.06.27.18.38s.28.16.48.16c.41 0 .8-.2 1.16-.6s.54-.86.54-1.4c0-.13-.04-.31-.14-.52-.09-.21-.2-.38-.31-.53-.12-.12-.29-.26-.51-.39-.22-.14-.39-.21-.53-.21z" class="fil7"/><path stroke="#2b2a29" stroke-miterlimit="22.926" stroke-width=".59" d="M39.35 138.98c.1.01.19.05.26.11.08.06.13.15.16.28.02.21.06.32.1.34q.075.03.21 0c1.17-.28 1.75-.42 1.73-.42-.01 0 .02-.01.08-.01.47-.03.79-.05.94-.07s.29-.05.41-.08c.56-.12.87-.18.92-.18.06-.01.12-.01.19-.01.46.04.7.05.7.05.01 0 .04-.01.1-.05a.6.6 0 0 0 .12-.1c.05-.06.11-.09.16-.09.2.01.35.06.46.16.11.09.16.21.16.37 0 .06-.02.11-.06.16a.5.5 0 0 1-.13.12c-.02.02-.05.03-.08.03-.04.01-.16-.01-.39-.03h-.22c-.07 0-.29.03-.64.09-.06.67-.09 1.03-.09 1.06v.07c0 .07.01.18.03.32.01.13.02.24.02.3 0 .05-.04.15-.12.31-.09.15-.13.36-.12.64 0 .09 0 .27-.01.53 0 .25 0 .46.01.61 0 .15.01.37.04.65.02.28.03.47.04.57.02.47.03.74.04.81v1.44c-.01.01-.01.02-.01.04-.03.08-.04.15-.05.22v.22c0 .08.04.18.12.29s.12.19.12.23c0 .03-.05.07-.13.11-.09.05-.14.09-.17.12s-.08.09-.14.17c-.06.09-.1.13-.14.13-.05-.01-.15-.08-.28-.21s-.19-.22-.19-.27v-.09s.04-.13.13-.38c.03-.09.04-.2.04-.31s-.01-.23-.04-.37c-.05-.18-.08-.3-.08-.34-.01-.04-.01-.08-.01-.13 0-.04.02-.11.05-.2.03-.1.04-.17.04-.23-.01-.06-.02-.25-.05-.58s-.04-.66-.04-.99c-.03-1.04-.04-1.66-.03-1.84 0-.18.01-.34.03-.49.06-.74.09-1.13.09-1.19v-.14c-.01-.34-.02-.55 0-.63.01-.07.04-.16.08-.26-.47.08-.94.13-1.4.15s-1.32.16-2.58.43q-.105 1.305-.03 3.09c.04 1.2.07 1.93.07 2.19-.01.17-.03.42-.04.75-.02.33-.03.57-.02.74v.69c-.01.17-.01.28-.01.32s0 .08.01.11c.02.17.03.3.04.37s.02.14.02.2c0 .07-.05.14-.13.21-.09.07-.17.11-.25.11-.29 0-.47-.08-.55-.23s-.12-.36-.12-.62c0-.13.02-.44.07-.94.05-.49.08-.98.08-1.47-.01-.06-.02-.14-.02-.25v-.26c0-.07.02-.19.05-.35s.05-.28.05-.37c0-.19-.01-.49-.02-.9s-.01-.72-.01-.92c0-.09 0-.22.01-.38q.015-.24.03-.33c0-.01 0-.01-.01 0 0 .01 0-.5.01-1.53-.16.01-.32.04-.47.06-.15.03-.31.07-.48.11-.73.19-1.1.28-1.1.28h-.05c-.18 0-.31-.02-.37-.06a.3.3 0 0 1-.1-.23v-.16c-.01 0 .4-.15 1.21-.45.91-.32 1.36-.48 1.35-.47 0 .01 0 0 .01-.02 0-.04 0-.09-.01-.17 0-.07 0-.13.01-.17.01-.11.05-.2.13-.28.07-.07.16-.11.26-.11zm42.63-7.88h-.65v-6.22h2.34c.69 0 1.23.16 1.62.49s.58.78.58 1.36c0 .59-.19 1.05-.58 1.38s-.93.49-1.62.49h-1.69zm0-3.1h1.67c.5 0 .89-.11 1.16-.32.27-.22.41-.53.41-.95 0-.41-.14-.72-.41-.94-.27-.21-.66-.32-1.16-.32h-1.67zm9.76-.34v-2.78h.64v6.22h-.64v-2.84h-3.86v2.84h-.65v-6.22h.65v2.78zm6.97 3.44-.71-1.77h-3.16l-.73 1.77h-.66l2.58-6.22h.78l2.59 6.22zm-.97-2.38-1.32-3.22-1.34 3.22zm5.14-3.84c.69 0 1.22.15 1.59.46q.57.45.57 1.29 0 .795-.57 1.26-.555.465-1.53.48h-.22l2.29 2.73h-.79l-2.25-2.72h-.86v2.72h-.65v-6.22zm-1.77 2.92h1.75c.49 0 .87-.1 1.13-.3.25-.2.38-.49.38-.87s-.13-.66-.39-.86-.63-.3-1.12-.3h-1.75zm11.15 3.3v-5.48l-2.26 4.76h-.67l-2.25-4.73v5.45h-.65v-6.22h.96l2.28 4.75 2.27-4.75h.96v6.22zm6.97 0-.72-1.77h-3.15l-.73 1.77h-.67l2.59-6.22h.78l2.58 6.22zm-.98-2.38-1.32-3.22-1.33 3.22zm-33.29-8.86-1.49-3.98h-7.29l-1.49 3.98h-3.54l6.64-17.08h4.14l6.67 17.08zm-2.66-7.12-2.46-6.59-2.49 6.59zm11.89.1v7.02h-3.4v-17.08h3.4v6.91h1.61l5.66-6.91h4.27l-7.18 8.32 7.71 8.76h-4.41l-6.08-7.02zm13.98 7.02v-17.08h3.39v17.08zm18.88-12.78c-1.54-.96-3.16-1.44-4.85-1.44-.98 0-1.77.18-2.37.55q-.9.54-.9 1.5c0 .57.29.99.88 1.27.58.27 1.47.51 2.66.7l.95.15c3.63.6 5.44 2.19 5.44 4.78 0 1.21-.32 2.23-.95 3.08-.64.84-1.48 1.47-2.54 1.89-1.06.41-2.22.62-3.49.62-1.33 0-2.64-.2-3.93-.59-1.28-.39-2.37-.94-3.27-1.66l1.76-2.75c.66.53 1.48.98 2.44 1.33s1.96.52 3 .52c.98 0 1.78-.18 2.42-.56.63-.37.95-.88.95-1.51 0-.56-.29-.97-.86-1.26-.57-.28-1.49-.53-2.78-.74l-1.07-.17c-3.48-.54-5.22-2.17-5.22-4.88 0-1.14.31-2.12.92-2.94.62-.83 1.45-1.44 2.48-1.86 1.03-.41 2.17-.62 3.4-.62 1.21 0 2.33.14 3.37.43 1.04.28 2.1.74 3.17 1.37zm18.73 35.34c.24 0 .43.15.57.46s.21.77.21 1.39c0 .06-.01.15-.01.26 0 .1-.01.18-.01.24-.01 1.38.02 2.09.1 2.14.07.05.11.07.13.07.09 0 .18-.02.27-.08s.56-.82 1.42-2.29c.48-.81.76-1.25.84-1.31.09-.07.17-.1.26-.1.08 0 .14.01.2.04.06.04.28.76.66 2.19.24.89.4 1.42.5 1.57.1.16.22.25.36.28.02.01.05.01.08.01s.06 0 .1-.01c.29-.04.54-.19.75-.43q.315-.36.54-.48c.06-.03.13-.05.2-.05s.13.01.19.05c.02.02.05.06.06.11.02.05.03.12.03.2 0 .17-.25.44-.76.81-.5.38-.84.57-1.01.57-.26 0-.49-.05-.69-.16-.21-.11-.36-.28-.47-.53-.11-.22-.22-.45-.32-.68s-.15-.4-.16-.48c-.23-1.36-.38-2.03-.44-2.03-.07 0-.14.12-.23.37-.18.49-.32.77-.41.86-.08.08-.17.24-.26.47-.25.59-.54 1.08-.88 1.45s-.69.55-1.04.55c-.22 0-.38-.06-.48-.19s-.15-.33-.14-.58v-.72c-.06-1.43-.08-2.13-.08-2.1 0 .02 0 .02.01-.02v-.39c-.02-.14-.05-.29-.1-.44q-.075-.225-.15-.24c-.1 0-.23.03-.39.1-.15.06-.29.14-.39.23-.34.28-.51.42-.51.41-.07 0-.15-.03-.23-.08-.08-.06-.12-.12-.12-.19q0-.135.09-.24c.06-.08.16-.15.3-.23.94-.52 1.4-.78 1.37-.78zm8.53 0c.24 0 .43.15.57.46s.2.77.2 1.39v.26c-.01.1-.01.18-.01.24-.01 1.38.02 2.09.1 2.14.07.05.11.07.13.07.09 0 .18-.02.27-.08s.56-.82 1.42-2.29c.48-.81.76-1.25.84-1.31.09-.07.17-.1.26-.1.08 0 .14.01.2.04.06.04.28.76.66 2.19.24.89.4 1.42.5 1.57.1.16.22.25.36.28.02.01.05.01.08.01s.06 0 .1-.01c.29-.04.54-.19.75-.43s.38-.4.54-.48c.06-.03.13-.05.2-.05s.13.01.19.05c.02.02.05.06.06.11.02.05.03.12.03.2 0 .17-.25.44-.76.81-.5.38-.84.57-1.01.57-.26 0-.49-.05-.69-.16-.21-.11-.36-.28-.47-.53-.11-.22-.22-.45-.32-.68s-.15-.4-.16-.48c-.23-1.36-.38-2.03-.44-2.03-.07 0-.14.12-.23.37-.18.49-.32.77-.41.86-.09.08-.18.24-.26.47-.25.59-.54 1.08-.88 1.45s-.69.55-1.05.55c-.21 0-.37-.06-.47-.19-.11-.13-.15-.33-.14-.58v-.72c-.06-1.43-.08-2.13-.08-2.1 0 .02 0 .02.01-.02v-.39c-.02-.14-.05-.29-.1-.44s-.1-.23-.16-.24c-.09 0-.22.03-.38.1a1.4 1.4 0 0 0-.4.23c-.34.28-.51.42-.51.41-.07 0-.14-.03-.22-.08-.08-.06-.12-.12-.12-.19q0-.135.09-.24c.06-.08.16-.15.29-.23.95-.52 1.4-.78 1.38-.78zm9.02-5.19c.14 0 .23.01.25.02.02.02.03.03.03.04 0 .05-.07.29-.22.72s-.22.76-.23.98c-.01.21-.02.31-.02.31 0-.01-.05.2-.16.61-.14.56-.22.88-.23.96s-.01.17-.01.27c-.01.07-.01.17-.01.32.01.15.01.26.01.33-.01.2-.03.36-.07.46s-.06.32-.06.65c-.01.27.02.46.1.58q.12.18.12.63c0 .11-.06.21-.2.31q-.195.15-.33.15c-.05.01-.08-.05-.1-.16-.03-.12-.05-.2-.06-.25-.03-.02-.07-.07-.13-.13q-.09-.09-.09-.15c0-.01.03-.03.08-.08.06-.04.08-.08.08-.12 0-.12 0-.37-.01-.74-.01-.38-.01-.71-.01-1 0-.05.01-.11.03-.2.02-.08.04-.15.05-.19.01-.09.01-.24 0-.43 0-.2.01-.35.02-.45.01-.09.05-.22.1-.39q.09-.27.12-.39c.02-.09.03-.22.04-.39q.015-.255.03-.36c.07-.67.17-1.16.3-1.46s.32-.45.58-.45zm-.9 10.37c.11 0 .21.11.3.32q.15.315.15.57c0 .06-.03.12-.09.17s-.17.09-.34.14c-.08.01-.13.01-.17.01-.03 0-.06 0-.08-.01-.06-.04-.11-.12-.14-.24q-.06-.195-.06-.45c0-.16.04-.28.12-.37.07-.08.18-.13.31-.14zm-69.93-3.5c.07 0 .13.02.2.05q.09.06.09.12a8 8 0 0 1-.08 1.08c-.03.16-.04.26-.03.29 0 .04.01.07.03.1 0 .02 0 .04.01.06.01.01.03.02.04.02.01.01.03.02.06.02.02 0 .06-.01.11-.02.14-.04.3-.15.49-.35.18-.19.28-.29.3-.31.06-.06.12-.13.18-.19s.09-.1.1-.12c.03-.03.05-.05.08-.07s.19-.06.48-.13c.11-.02.24-.07.4-.15s.32-.12.49-.12c.35 0 .65.16.89.47s.26.67.06 1.06c-.04.08-.08.19-.12.32-.03.14-.06.23-.08.28-.03.08-.09.17-.18.29-.08.12-.14.21-.17.26q-.105.195-.18.3c-.05.07-.26.17-.64.3-.43.14-.68.2-.76.18-.08-.03-.19-.06-.34-.12-.16-.05-.3-.1-.41-.15s-.31-.13-.59-.25c-.17.25-.28.59-.35 1.02-.08.43-.13 1.04-.16 1.83-.01.1-.02.2-.02.31 0 .12.01.38.02.8 0 .37-.05.67-.13.9-.08.24-.18.35-.3.35-.09 0-.22-.04-.37-.12-.16-.08-.24-.16-.24-.23 0-.02.01-.05.02-.1s.02-.08.02-.1q0-.345-.09-.39c-.05-.04-.08-.16-.08-.39s.04-.44.13-.62c.09-.19.15-.39.18-.63v-.21c-.03-.23-.04-.37-.04-.4.01-.03.02-.06.04-.09 0-.04.05-.11.14-.22.08-.1.13-.21.14-.33.01-.09.01-.31.01-.63s.03-.73.08-1.22c.06-.56.07-.96.04-1.19-.04-.23-.05-.42-.04-.58 0-.26.07-.49.2-.69.13-.19.25-.29.37-.29zm.81 2.44c.11.16.29.3.53.4.24.11.46.17.67.17.22 0 .44-.14.69-.41.24-.28.38-.51.43-.71 0-.04.01-.09 0-.14v-.2c-.03-.15-.08-.26-.15-.32a.36.36 0 0 0-.28-.11h-.15zm5.88-3.61c.19 0 .32.01.37.02s.35.24.87.69c.38.33.63.63.76.89q.18.39.18.87c0 .75-.27 1.4-.81 1.94q-.81.81-1.56.81c-.54-.01-.95-.17-1.23-.49-.28-.33-.42-.89-.41-1.68v-.76q.015-.21.15-.81c.1-.51.3-.88.59-1.12s.66-.36 1.09-.36zm-.07.74c-.07 0-.18.04-.32.12s-.24.16-.31.23c-.13.12-.22.29-.27.49-.06.2-.08.44-.08.73v.55c.01.03.02.05.02.08.09.35.14.53.15.53v.01c0 .04-.01.11-.04.19-.03.09-.03.15-.03.18 0 .15.07.27.19.38s.28.16.47.16c.41 0 .8-.2 1.16-.6.37-.4.55-.86.55-1.4 0-.13-.05-.31-.14-.52-.1-.21-.2-.38-.32-.53-.11-.12-.28-.26-.5-.39-.22-.14-.4-.21-.53-.21zm6.53-6.15c.4 0 .73.16.98.49.26.33.38.75.38 1.25 0 .81-.3 1.57-.92 2.28s-1.47 1.25-2.55 1.6c-.03.17-.05.4-.07.67s-.03.46-.03.56v-.01c-.01-.01.07.29.22.92.15.69.36 1.16.63 1.42q.405.39.99.39c.41 0 .76-.13 1.05-.38.29-.26.43-.64.43-1.16 0-.44-.13-.8-.4-1.07s-.59-.41-.94-.41c-.15 0-.3.04-.47.13-.17.08-.3.18-.39.29-.31.35-.45.52-.45.51h.02c-.12.01-.2-.03-.24-.1a.75.75 0 0 1-.06-.33c0-.33.17-.62.5-.86s.74-.37 1.22-.38c.68 0 1.18.21 1.49.62s.47.98.47 1.69c-.01.74-.22 1.29-.64 1.67-.41.37-.98.56-1.69.56q-.915 0-1.56-.69c-.42-.46-.68-.99-.77-1.59-.14-.87-.21-1.41-.2-1.62s.05-.44.11-.68c-.52.11-1.06.09-1.61-.06q-.84-.225-.84-.6c0-.25.07-.47.21-.67.14-.19.28-.19.42.03.19.27.49.44.88.52.4.08.75.06 1.06-.05q.24-2.565.93-3.75c.45-.8 1.06-1.19 1.84-1.19zm-2.02 4.8c.62-.16 1.2-.52 1.73-1.08q.81-.84.81-1.71c0-.36-.06-.66-.19-.9-.12-.24-.29-.36-.48-.36-.33 0-.66.26-1 .8-.33.53-.55 1.16-.65 1.9-.14.88-.21 1.31-.21 1.31 0-.01 0 .01-.01.04zm5.49 3.28c0-.01.01-.03.02-.06.02-.03.03-.06.04-.09 0-.01 0-.03.01-.06.01-.04.02-.06.03-.07 0-.02 0-.03.01-.05.01-.01.16-.16.46-.45.01-.01.05-.07.13-.18s.27-.23.57-.35c.59-.25 1.05-.28 1.39-.09.34.18.51.55.51 1.09q0 .51-.06.81c-.04.19-.14.43-.31.7-.36.57-.65.91-.88 1.02-.22.1-.49.16-.82.16-.46 0-.89-.12-1.28-.35s-.58-.53-.58-.89v-.29c0-.13 0-.22.01-.28 0-.03 0-.11-.01-.24 0-.13 0-.23.01-.32 0-.06.02-.16.07-.31.04-.15.07-.27.07-.36 0-.21-.04-.52-.1-.92-.06-.41-.09-.64-.09-.7 0-.02.01-.05.02-.08.02-.04.03-.07.03-.1s-.02-.09-.05-.17a.5.5 0 0 1-.06-.2q0-.18.12-.27c.07-.06.19-.1.35-.1.08 0 .16.02.23.06.07.03.11.08.11.12 0 .02 0 .05-.01.09-.01.05-.02.08-.02.1-.01.05 0 .13.02.23.01.09.02.17.02.21v.35c-.01.15-.01.26-.01.34v.04c0 .01.02.17.07.48.01.08.01.15.01.22s0 .14-.01.21c-.06.37-.08.58-.07.62s.03.09.05.13zm1.08 1.67c.14.01.28-.02.4-.09.13-.07.33-.27.61-.61.11-.15.2-.28.25-.36.05-.09.08-.28.08-.57 0-.26-.06-.46-.17-.6a.6.6 0 0 0-.46-.2c-.26.01-.61.21-1.05.63-.45.41-.67.73-.67.96 0 .31.09.53.26.66q.255.195.75.18zm4.04-4.18c.17 0 .3.04.38.13s.12.27.12.53c0 .03 0 .05-.01.06 0 .01-.04.56-.1 1.66.92-.07 1.42-.16 1.5-.26.07-.1.17-.36.27-.8.08-.33.15-.54.23-.66.07-.11.19-.23.35-.38q.27-.255.48-.33c.14-.05.32-.07.54-.07.11 0 .21.01.3.02s.33.11.74.3q.48.24.57.39c.07.1.14.24.23.43.28.65.42 1.02.44 1.09.01.07.02.14.02.2 0 .31-.08.65-.23 1s-.3.62-.44.79c-.17.19-.4.35-.68.48-.28.12-.59.19-.92.19-.59 0-1.04-.17-1.34-.51-.3-.33-.44-.83-.43-1.49-.17.08-.39.12-.66.13s-.59.04-.96.1q0 .33.03.63c.02.19.06.46.12.8.01.07.01.12.01.15-.01.03-.01.04-.01.05-.02.04-.05.07-.1.08a.4.4 0 0 1-.17.03c-.19 0-.32-.05-.39-.16-.06-.11-.09-.31-.09-.59 0-.05 0-.12.01-.22.01-.09.02-.17.02-.22s-.01-.11-.04-.19a1 1 0 0 1-.03-.18c-.01-.01-.01-.04-.01-.06v-.11c-.28.05-.49.06-.62.02-.14-.03-.2-.17-.2-.41 0-.05 0-.08.02-.11.01-.03.28-.06.8-.11 0-.2.01-.36.02-.47l.03-.31c.04-.57.07-.85.07-.84v-.01q0-.18-.03-.39c-.02-.14-.03-.22-.03-.26 0-.03.02-.05.06-.08a.22.22 0 0 1 .13-.04zm3.78.54c-.09 0-.19.03-.29.1-.11.08-.21.17-.32.3-.15.17-.25.32-.29.46-.05.14-.07.58-.07 1.33 0 .52.08.88.25 1.08.17.19.46.29.85.29.13 0 .28-.05.45-.14s.3-.19.4-.31c.26-.31.42-.61.48-.88.06-.28-.01-.7-.23-1.27-.09-.2-.16-.35-.23-.45q-.09-.15-.48-.33c-.28-.1-.43-.16-.46-.17-.02-.01-.05-.01-.06-.01zm6.67-.12q.27 0 .39.12c.08.08.13.24.15.49 0 .16 0 .34-.01.54 0 .21-.01.34-.01.4v.15c0 .06.01.15.02.27.14.01.37-.04.7-.15.32-.11.57-.22.76-.33.22-.14.34-.38.38-.74.03-.36.23-.54.6-.55q.015.015 0 0c-.01 0 .15.5.46 1.5.11.37.16.55.16.55 0-.01.15.26.44.79.07.14.19.26.37.36s.35.15.52.15c.33.01.72-.14 1.15-.45.44-.32.71-.47.8-.47.04 0 .09.03.13.09.05.05.07.11.07.16 0 .33-.25.65-.74.94q-.735.45-1.5.45c-.52 0-.92-.14-1.19-.4-.26-.26-.52-.77-.76-1.51-.15-.4-.23-.62-.24-.64q-.03-.03-.06-.03c-.04 0-.12.06-.23.17-.11.12-.21.2-.29.23-.03.01-.06.02-.1.04q-.045.03-.06.03c-.02.01-.03.01-.04.02q-.015 0-.18.09c-.08.04-.14.07-.18.08-.04.02-.31.06-.81.14-.09.51-.09.89.01 1.13.09.23.14.43.14.58 0 .04-.03.08-.08.1-.06.02-.12.03-.19.03q-.3 0-.42-.15t-.12-.57c-.01-.03-.01-.09-.01-.2.01-.1.01-.18.01-.24-.02-.1-.04-.18-.06-.23s-.05-.16-.07-.33c-.35.07-.58.07-.68 0-.11-.06-.16-.18-.16-.36 0-.08.03-.14.1-.18.06-.04.29-.05.7-.03v-.53c.01 0 .01-.36.01-1.07q0-.06-.03-.15a.4.4 0 0 1-.04-.16q0-.045.06-.09a.22.22 0 0 1 .13-.04zm8.39-.86h.25c0 .01.2.16.61.45.16.12.24.19.25.22 0 .03.01.06.01.11.01.15.02.26.05.32.02.06.05.09.1.09.1 0 .23-.03.36-.11.13-.07.22-.1.27-.1.12 0 .23.16.32.48s.13.62.11.89c-.03.31-.04.48-.04.52.01.04.02.06.04.08.01.03.03.07.06.13s.05.1.07.13c0 .02 0 .05.01.09 0 .04 0 .09-.01.16-.02.12-.02.21-.02.27s0 .12.02.16c.02.09.06.21.12.37.07.16.11.25.15.29.17.28.26.42.26.43.01.01.01.02.02.03.02.09.03.17.03.22 0 .06-.01.1-.03.14-.02.03-.06.05-.1.07-.04.01-.09.03-.15.05-.07.01-.12.01-.16.01s-.07 0-.1-.01a1.5 1.5 0 0 1-.31-.24c-.12-.13-.19-.22-.2-.27a.4.4 0 0 1 0-.15v-.16q0 .045-.12-.21c-.08-.16-.14-.36-.17-.6h-.02c0-.01.01-.12.02-.34 0-.1-.02-.21-.06-.32s-.09-.17-.13-.17q-.09 0-.18.12a.7.7 0 0 1-.12.11c-.58.35-.87.51-.86.49s.01-.02 0 .02c-.01.03-.02.03 0 0 .01-.03-.3.29-.94.95-.09.09-.16.16-.22.2-.07.04-.23.07-.5.09-.16.01-.25.02-.27.02-.02-.01-.03-.02-.04-.02-.13-.04-.26-.15-.4-.35a.9.9 0 0 1-.2-.54c0-.09.03-.25.09-.47s.11-.39.13-.48c.21-1.1.48-1.9.82-2.41.33-.51.73-.76 1.18-.76zm-.12.8c-.16.02-.3.09-.43.2-.12.12-.29.48-.51 1.09-.14.4-.21.59-.21.59 0-.01-.01.07-.01.23-.01.06-.03.16-.05.3-.02.13-.05.29-.08.48-.02.11-.03.18-.03.23.01.04.02.08.03.11.02.05.05.09.08.13s.06.05.1.04c.21 0 .58-.3 1.09-.89s.78-1.05.8-1.39c.01-.23-.06-.47-.23-.74-.16-.27-.34-.4-.55-.38zm4.44-.4q.165.015.27.09c.07.06.13.38.2.98v.5c-.02.82 0 1.41.06 1.76.05.35.15.52.28.52.08 0 .15-.02.23-.06.07-.05.42-.57 1.02-1.56.67-1.08 1.01-1.63 1.03-1.63.02-.01.06-.01.1-.01.18 0 .3.03.37.08.06.06.2.7.42 1.95.14.82.24 1.27.3 1.34s.14.11.24.11c.16 0 .32-.01.46-.04s.33-.08.55-.16c.32-.12.57-.1.73.05.17.15.25.68.25 1.59 0 .75-.08 1.59-.23 2.51-.15.93-.32 1.64-.52 2.12-.29.66-.57 1.14-.85 1.42-.29.29-.63.43-1.05.43-.36 0-.75-.1-1.16-.32-.42-.21-.74-.52-.97-.93-.19-.34-.33-.7-.43-1.08-.1-.37-.14-.73-.14-1.09 0-.22.02-.36.06-.44.04-.09.11-.12.21-.11.13 0 .22.03.28.11.07.07.13.3.19.69q.015.09 0 .27c-.02.13-.02.22 0 .28.09.54.34.99.73 1.35q.6.54 1.11.54c.63 0 1.13-.61 1.51-1.81.38-1.21.58-2.49.58-3.86 0-.45-.04-.73-.12-.83a.4.4 0 0 0-.34-.15c-.1 0-.23.02-.38.08-.16.05-.35.08-.58.08h-.64s-.13-.64-.4-1.91c-.2-.89-.31-1.35-.32-1.36s-.02-.01-.03-.01q-.12 0-.3.66c-.13.44-.35.89-.68 1.37-.18.25-.43.5-.75.76-.32.25-.57.38-.77.38-.13.01-.24-.05-.36-.19a.84.84 0 0 1-.2-.46h-.02s.01-.18.02-.55q0-.12-.03-.33a3 3 0 0 1-.03-.31c-.01-.03-.01-.06-.01-.1v-.44c-.01-.05-.02-.16-.04-.31-.02-.16-.02-.29-.02-.39v-.34c0-.05-.02-.11-.04-.2a.5.5 0 0 1-.04-.18c-.01-.08-.03-.15-.03-.21s-.01-.11-.01-.17q0-.36.06-.42c.04-.04.12-.06.23-.06zm-86.5 5.2-.2 1.65c-.1.8-.38 1.55-.83 2.27s-.95 1.07-1.5 1.07c-.36 0-.76-.14-1.18-.41-.43-.26-.7-.59-.83-1-.04-.1-.06-.18-.09-.23a.7.7 0 0 0-.12-.18.9.9 0 0 1-.15-.18.5.5 0 0 1-.08-.15c-.01-.01-.02-.04-.03-.06-.01-.03-.04-.15-.09-.38-.01-.04-.02-.09-.04-.13-.01-.04-.03-.07-.04-.1s-.05-.1-.13-.21a.7.7 0 0 1-.12-.26c0-.16.03-.29.08-.39.06-.11.12-.16.19-.16.16 0 .31.06.45.19s.22.29.22.48c0 .04 0 .12-.02.25-.01.13 0 .23.02.3v.02c0 .01.12.15.34.44l.03.06q.03.015.21.36c.16.29.36.54.59.72.24.19.46.29.67.29.42 0 .84-.3 1.24-.88q.6-.87.66-2.07c.01-.39.04-.89.1-1.49q.09-.9.09-1.23 0-1.32-.03-1.35c-.02-.01-.03-.02-.04-.02-.05 0-.12.06-.23.17-.11.12-.2.2-.27.26a.73.73 0 0 1-.36.15c-.14.02-.25.05-.32.07-.42.17-.63.24-.63.24s-.08-.01-.23-.01c-.41.01-.67-.09-.78-.31-.11-.21-.07-.47.12-.77.04-.08.12-.26.21-.52.1-.27.15-.44.15-.53a.3.3 0 0 0-.07-.1c-.03-.03-.07-.05-.1-.05-.08 0-.26.07-.52.2-.26.14-.44.2-.52.19a.34.34 0 0 1-.31-.13c-.09-.09-.13-.18-.13-.26q0-.015 0 0c0 .01.36-.17 1.07-.52.6-.29.99-.47 1.17-.55.17-.07.31-.11.41-.11.06 0 .13.03.2.09.07.05.1.11.1.16 0 .11-.13.37-.41.79s-.48.87-.61 1.38c-.01.06-.02.11-.02.14 0 .04.01.07.02.08.01.03.04.05.08.06.04.02.1.02.18.01q.3 0 .72-.21c.29-.14.58-.33.86-.57q.15-.12.33-.45c.12-.22.26-.33.41-.34.06 0 .1.03.14.09s.06.32.06.8c0 .09 0 .21-.02.37q-.03.24-.03.36c0 .13.01.32.04.56.03.25.04.43.04.55 0 .16 0 .3-.01.44-.01.13-.05.48-.11 1.05zm1.28-3.72c.17 0 .29.04.37.12q.105.12.18.6l.06.65s.01 0 .02.01q.255.57.27.57c.01.01.02.01.04.01.01 0 .11-.14.28-.42s.37-.53.62-.76c.41-.4.76-.68 1.06-.84.29-.16.63-.14 1.01.06q.105.06.18.12c.06.03.16.35.33.95.05.24.11.43.17.57q.09.21.15.21c.04 0 .14-.07.3-.2.16-.14.29-.27.41-.4l.33-.39c-.01.01 0 .01.01 0l.02-.02c0-.01.13-.07.38-.2.27-.13.44-.21.52-.23.08-.01.18-.02.28-.02.26 0 .45.05.56.15s.17.3.18.58v.24c-.01.1-.01.18 0 .22q0 .345.06.57c.03.14.08.24.14.29.23.23.34.36.35.38v.05c-.01.06-.07.16-.18.29-.12.13-.22.19-.29.19-.19 0-.35-.07-.47-.21s-.24-.24-.35-.3c-.17-.07-.26-.12-.27-.16a.8.8 0 0 1-.02-.19c0-.05.02-.12.07-.2.05-.09.09-.15.1-.18s.02-.06.02-.1c0-.03-.01-.16-.02-.37-.02-.26-.05-.4-.06-.43-.02-.04-.04-.06-.07-.06-.15 0-.5.3-1.04.91-.54.6-.89.9-1.03.9h-.14q-.06-.015-.72-1.71-.075-.195-.27-.45c-.12-.17-.22-.25-.28-.25-.07 0-.19.08-.36.26-.16.17-.32.36-.46.57-.08.11-.16.21-.25.31-.08.1-.16.2-.23.31q-.15.21-.27.42c-.08.14-.15.25-.2.33-.12.15-.24.27-.36.35q-.18.12-.33.12c-.13 0-.24-.03-.33-.08s-.27-.67-.53-1.85c-.02-.1-.07-.24-.15-.43-.07-.18-.1-.35-.1-.51 0-.12.02-.21.07-.27.05-.05.13-.08.24-.08zm7.02-3.1c.04 0 .06.01.08.02.01.01.01.04.01.08 0 .21-.21.45-.63.74s-.96.54-1.63.75c-.83.27-1.33.41-1.51.42s-.38.01-.62.01c-.19 0-.32-.02-.37-.06-.05-.05-.07-.13-.07-.25 0-.13.04-.23.13-.3.09-.08.22-.11.38-.11.06 0 .15 0 .27.01s.2.01.27.01c.2 0 .44-.03.7-.1.27-.06.66-.2 1.19-.41.31-.1.66-.27 1.06-.49.41-.22.65-.32.74-.32zm2.82 4.17c0-.01.01-.03.02-.06s.03-.06.03-.09c0-.01.01-.03.02-.06.01-.04.02-.06.02-.07 0-.02.01-.03.02-.05l.45-.45c.01-.01.06-.07.14-.18s.27-.23.56-.35c.59-.25 1.06-.28 1.4-.09.34.18.51.55.51 1.09q0 .51-.06.81c-.04.19-.15.43-.32.7q-.525.855-.87 1.02c-.22.1-.5.16-.82.16-.46 0-.89-.12-1.28-.35s-.58-.53-.58-.89v-.29c0-.13 0-.22.01-.28 0-.03 0-.11-.01-.24 0-.13 0-.23.01-.32 0-.06.02-.16.07-.31q.06-.225.06-.36c0-.21-.03-.52-.09-.92-.06-.41-.1-.64-.1-.7 0-.02.01-.05.03-.08.02-.04.03-.07.03-.1s-.02-.09-.06-.17a.6.6 0 0 1-.05-.2q0-.18.12-.27c.07-.06.19-.1.35-.1.08 0 .16.02.23.06.07.03.11.08.11.12 0 .02-.01.05-.02.09-.01.05-.01.08-.01.1-.01.05 0 .13.01.23.02.09.03.17.03.21 0 .08 0 .2-.01.35v.38q0 .015.06.48c.01.08.02.15.02.22s-.01.14-.02.21c-.05.37-.07.58-.06.62s.02.09.05.13zm1.08 1.67c.14.01.27-.02.4-.09.12-.07.32-.27.6-.61.12-.15.2-.28.26-.36.05-.09.08-.28.08-.57q0-.39-.18-.6a.58.58 0 0 0-.45-.2c-.26.01-.61.21-1.06.63q-.66.615-.66.96c0 .31.08.53.25.66s.42.19.76.18zm6.46-3.98c.01.01.01.02.02.04.01.01.02.15.02.43q0 .225-.03.57c-.02.22-.03.38-.03.47-.01.17-.01.28-.01.32 0 .05 0 .1.01.13.01.33.05.63.11.9s.13.4.22.4c.23 0 .45-.23.65-.69.21-.46.37-.75.47-.86.2-.22.49-.48.88-.8.38-.32.65-.48.79-.48.05 0 .12.06.2.16.08.11.12.19.12.26 0 .03-.01.07-.03.11s-.31.27-.86.69c-.31.25-.49.43-.53.56-.05.13-.07.29-.07.49 0 .35.09.62.27.83q.27.3.84.3c.28 0 .57-.07.88-.22.3-.14.57-.31.79-.52q.12-.105.27-.18c.1-.05.2-.08.31-.08.04 0 .09.04.12.12.05.08.07.15.08.22 0 .05-.04.12-.13.2-.08.08-.22.2-.39.35-.44.36-.81.6-1.12.71-.3.12-.62.18-.95.18-.42 0-.81-.12-1.16-.35s-.52-.55-.52-.94q-.585.72-.81.93c-.15.14-.28.21-.39.2h-.1c-.03 0-.2-.46-.51-1.37-.11-.3-.16-.52-.14-.67q.03-.225.03-.3c-.01-.04-.02-.1-.04-.2-.01-.1-.02-.18-.02-.23 0-.08.01-.19.03-.34.02-.14.03-.24.04-.3v-.41c-.01-.25.01-.42.05-.51.05-.1.16-.15.34-.16.12 0 .19.01.22.01.03.01.06.02.08.03zm10.46-.16c.2.12.3.19.32.21s.03.05.03.07c-.01.34-.04.57-.1.68s-.14.22-.25.33c-.53.54-.79.8-.79.8v.09c-.01.03 0 .06.05.08.04.01.11.02.19.02.04.01.11.01.19.01.09 0 .15-.01.18-.01.55.05.98.27 1.29.68.32.41.48.94.49 1.59 0 .24-.05.51-.14.83s-.28.83-.58 1.52c-.5 1.14-.97 1.91-1.41 2.3-.43.39-.92.59-1.45.59-.47 0-.86-.15-1.16-.46s-.56-.79-.77-1.45c-.02-.08-.07-.37-.15-.88s-.12-.81-.12-.89c0-.13.05-.26.14-.39.1-.12.19-.18.29-.17.14 0 .25.04.3.12q.09.12.09.66c0 .05-.02.14-.05.26-.03.13-.04.22-.04.29 0 .53.15 1.04.46 1.51s.69.71 1.15.72c.4 0 .81-.23 1.23-.68.41-.44.75-1.1 1.01-1.96.35-1.18.53-1.76.53-1.75v-.05c0-.61-.15-1.06-.45-1.37-.3-.3-.76-.45-1.37-.45-.04 0-.1 0-.18.01s-.14.01-.18.01c-.34 0-.52 0-.54-.02-.03-.01-.04-.03-.04-.07 0-.19.07-.38.2-.58.13-.21.34-.45.63-.75.26-.26.41-.41.43-.46s.03-.1.03-.16q-.015-.15-.18-.27a.58.58 0 0 0-.37-.13c-.33 0-.63.07-.89.22-.26.14-.42.21-.49.21-.05.01-.08-.01-.11-.06a.3.3 0 0 1-.04-.15q0-.345.51-.6c.34-.17.76-.25 1.25-.25.2.01.36.02.46.05.11.02.24.07.4.15zm4.26.26c.25 0 .47.09.67.29s.29.45.29.77a1.2 1.2 0 0 1-.09.43c-.05.1-.12.16-.2.16-.09.01-.17 0-.22-.02-.06-.03-.09-.06-.08-.1 0-.04.01-.1.04-.2q.03-.135.03-.21c0-.06-.06-.12-.17-.19a.6.6 0 0 0-.31-.1c-.17 0-.4.17-.67.51s-.41.58-.41.74.06.27.18.35c.11.07.29.1.52.1.07 0 .22-.04.44-.13s.46-.14.72-.14c.24 0 .41.08.51.23.09.14.14.45.14.92v.06c0-.03-.05.48-.14 1.52-.01.07-.02.15-.02.24-.01.08 0 .24.02.49q.06 1.845-.6 3.36c-.45 1.01-.91 1.51-1.41 1.51-.29 0-.56-.02-.81-.08-.24-.05-.89-.34-1.94-.86-.21-.1-.5-.36-.89-.78-.38-.43-.57-.7-.57-.82q0-.075.06-.21c.04-.09.06-.16.06-.2a.2.2 0 0 0-.03-.14.3.3 0 0 1-.04-.12c.01-.06.05-.11.13-.16.09-.04.17-.07.25-.07.17 0 .31.03.42.08s.17.12.17.21c0 .03-.03.09-.08.18a.4.4 0 0 0-.07.21c0 .29.36.71 1.09 1.24.72.54 1.3.81 1.72.81.56 0 1.01-.48 1.34-1.45s.5-1.91.5-2.83c0-.09-.01-.22-.02-.38-.02-.16-.02-.28-.02-.35 0-.06.03-.14.08-.24q.09-.15.09-.24c0-.06-.01-.14-.04-.27-.03-.12-.03-.21-.03-.28 0-.06.01-.14.02-.25.02-.11.02-.2.02-.26 0-.09-.04-.17-.13-.23a.54.54 0 0 0-.3-.1c-.02 0-.15.07-.38.2-.24.13-.53.19-.89.19-.23 0-.41-.08-.57-.24-.15-.16-.22-.41-.22-.74 0-.62.2-1.18.61-1.68.42-.49.82-.73 1.23-.73zm4.51-.46c.2 0 .32.01.38.02q.075.015.87.69c.37.33.62.63.75.89s.19.55.19.87c0 .75-.27 1.4-.81 1.94-.55.54-1.07.81-1.57.81-.54-.01-.95-.17-1.23-.49-.28-.33-.42-.89-.41-1.68 0-.37.01-.62.01-.76s.05-.41.14-.81c.11-.51.31-.88.6-1.12q.435-.36 1.08-.36zm-.07.74c-.07 0-.17.04-.31.12s-.25.16-.32.23c-.12.12-.21.29-.27.49-.05.2-.08.44-.08.73 0 .34 0 .52.01.55 0 .03.01.05.02.08.09.35.13.53.14.53l.01.01c0 .04-.02.11-.04.19q-.045.135-.03.18c0 .15.06.27.18.38s.28.16.48.16c.41 0 .8-.2 1.16-.6s.54-.86.54-1.4c0-.13-.04-.31-.14-.52-.09-.21-.2-.38-.31-.53-.12-.12-.29-.26-.51-.39-.22-.14-.39-.21-.53-.21z" class="fil7"/></g></g></svg>